<svg xmlns="http://www.w3.org/2000/svg" viewBox="0 0 199.47 102.93"><defs><style>.cls-1{fill:#fff;}</style></defs><g id="Layer_2" data-name="Layer 2"><g id="Layer_1-2" data-name="Layer 1"><path class="cls-1" d="M7.46,85.49l4.46,16.83H13.1v.39H8.74v-.39H9.88L8.53,97.18H3l-1.33,5.14H3.14v.39H0v-.39H1.31L5.68,85.49ZM3.13,96.79H8.4L5.74,86.72Z"/><path class="cls-1" d="M32.89,98.48c0,2-.55,3.2-1.65,3.76a9.74,9.74,0,0,1-3.8.48H22v-.39h1.18V85.88H22v-.39h5.69a7.14,7.14,0,0,1,3.39.54q1.23.77,1.23,3.24v.78a3.24,3.24,0,0,1-2.88,3.44,4,4,0,0,1,2.42,1.07,4.36,4.36,0,0,1,1,3.14Zm-7.64-5.14h2.47A2.32,2.32,0,0,0,29,92.9a2.66,2.66,0,0,0,.88-1A4.27,4.27,0,0,0,30.26,90v-.65a4.92,4.92,0,0,0-.39-2.08,2.3,2.3,0,0,0-.88-1,2.57,2.57,0,0,0-1.27-.37H25.25Zm0,9h2.2a3.1,3.1,0,0,0,1.67-.44,3.63,3.63,0,0,0,1.69-3.47v-.66c0-1.79-.56-3-1.69-3.6a4,4,0,0,0-1.67-.39h-2.2Z"/><path class="cls-1" d="M52.69,98.48c0,2-.55,3.2-1.65,3.76a9.74,9.74,0,0,1-3.8.48H41.82v-.39H43V85.88H41.82v-.39h5.69A7.14,7.14,0,0,1,50.9,86q1.23.77,1.23,3.24v.78a3.24,3.24,0,0,1-2.88,3.44,4,4,0,0,1,2.42,1.07,4.36,4.36,0,0,1,1,3.14v.78Zm-7.64-5.14h2.47a2.32,2.32,0,0,0,1.27-.44,2.66,2.66,0,0,0,.88-1A4.27,4.27,0,0,0,50.06,90v-.65a4.92,4.92,0,0,0-.39-2.08,2.3,2.3,0,0,0-.88-1,2.57,2.57,0,0,0-1.27-.37H45.05Zm0,9h2.2a3.1,3.1,0,0,0,1.67-.44,3.63,3.63,0,0,0,1.69-3.47v-.66c0-1.79-.56-3-1.69-3.6a4,4,0,0,0-1.67-.39h-2.2Z"/><path class="cls-1" d="M69.23,102.32a3.78,3.78,0,0,0,1.6-1.38,5.74,5.74,0,0,0,.79-1.77,7.17,7.17,0,0,0,.3-2.17h.67l-.54,5.71H61.63v-.39h1.18V85.88H61.63v-.39H72.05l.55,5.71h-.67a7.61,7.61,0,0,0-.3-2.18,6,6,0,0,0-.79-1.77,3.9,3.9,0,0,0-1.6-1.37H64.86v8h3.2V91.24h1v5.7h-1V94.28h-3.2v8Z"/><path class="cls-1" d="M94.29,85.49v.39h-2l-3.62,8.81-.06.15v7.48h1.14v.39H85.39v-.39h1.17V95.41l-3.83-9.53H81.55v-.39h4.52v.39H84.93l3.53,8.2,3.41-8.2H90v-.39Z"/><path class="cls-1" d="M111.21,94.37a5.3,5.3,0,0,1-2.86-4.54,4.13,4.13,0,0,1,1.4-3.2,5.73,5.73,0,0,1,4-1.33,4.36,4.36,0,0,1,1.39.21h2.19l.54,5.71h-.67a9.3,9.3,0,0,0-.57-2.65c-.68-1.9-1.77-2.86-3.26-2.86a3.08,3.08,0,0,0-2.54,1,3,3,0,0,0-.6,1.92A3.76,3.76,0,0,0,111,90.8a4.85,4.85,0,0,0,1.48,1.48l1.38.85h0l1.12.73a4.81,4.81,0,0,1,2.86,4.54,4.13,4.13,0,0,1-1.4,3.2,5.73,5.73,0,0,1-4,1.33,4.4,4.4,0,0,1-1.39-.21H108.9l-.54-5.7H109a9.38,9.38,0,0,0,.57,2.64c.68,1.9,1.77,2.86,3.26,2.86a3.06,3.06,0,0,0,2.54-1,3,3,0,0,0,.6-1.92,3.64,3.64,0,0,0-.7-2.09A5.21,5.21,0,0,0,113.77,96Z"/><path class="cls-1" d="M134.26,85.49l4.46,16.83h1.18v.39h-4.36v-.39h1.13l-1.35-5.14h-5.49l-1.33,5.14h1.43v.39h-3.14v-.39h1.31l4.37-16.83Zm-4.32,11.3h5.27l-2.66-10.07Z"/><path class="cls-1" d="M160.44,85.49v.39h-1.37v16.83h-.88L150.58,87v15.29H152v.39h-3.14v-.39h1.37V85.88h-1.37v-.39h3.41l6.45,12.84V85.88h-1.37v-.39Z"/><path class="cls-1" d="M181.05,96.3a6.28,6.28,0,0,1-2,4.85,5.92,5.92,0,0,1-4.11,1.56h-5.6v-.39h1.18V85.88h-1.18v-.39H175a5.53,5.53,0,0,1,4,1.6A6.08,6.08,0,0,1,181.05,92Zm-6.25,6a3.21,3.21,0,0,0,2.09-.66q2.09-1.45,2.09-5.43V92q0-4.1-2.09-5.54a4,4,0,0,0-2.09-.62h-2.2v16.44Z"/><path class="cls-1" d="M192.83,94.37A5.3,5.3,0,0,1,190,89.83a4.13,4.13,0,0,1,1.4-3.2,5.73,5.73,0,0,1,4-1.33,4.4,4.4,0,0,1,1.39.21h2.18l.54,5.71h-.67a9.3,9.3,0,0,0-.57-2.65c-.68-1.9-1.77-2.86-3.26-2.86a3.06,3.06,0,0,0-2.54,1,3,3,0,0,0-.6,1.92,3.76,3.76,0,0,0,.76,2.16,4.85,4.85,0,0,0,1.48,1.48l1.38.85h.05l1.12.73a4.81,4.81,0,0,1,2.86,4.54,4.13,4.13,0,0,1-1.4,3.2,5.73,5.73,0,0,1-4,1.33,4.4,4.4,0,0,1-1.39-.21h-2.19L190,97h.67a9.38,9.38,0,0,0,.57,2.64c.68,1.9,1.77,2.86,3.26,2.86a3.06,3.06,0,0,0,2.54-1,3,3,0,0,0,.6-1.92,3.64,3.64,0,0,0-.7-2.09A5.21,5.21,0,0,0,195.38,96Z"/><path class="cls-1" d="M129.22,74.51H106.34a8.21,8.21,0,0,0,3.38-2.09,4.8,4.8,0,0,0,1.4-3.48l-.1-.86-9.57-24.55L92.72,66.37A11.83,11.83,0,0,1,88,72.32a12.43,12.43,0,0,1-6.86,2.09,12.75,12.75,0,0,1-4.57-.86q-7.38-3.43-7.8-11.9a11.35,11.35,0,0,1,.31-2.89l.31-1.29L87.94,9.22a17.54,17.54,0,0,0-3.48-5.84A11,11,0,0,0,79.73,0H93.66l25.89,66.16a13.24,13.24,0,0,0,4.26,5.63A16.89,16.89,0,0,0,129.22,74.51Zm-48-1.07a11.06,11.06,0,0,0,6.24-1.93A11.72,11.72,0,0,0,91.79,66l9-23.7H80.15V41.27h20.38l-12-30.67L70.79,56.92a14.27,14.27,0,0,0-.94,4.83,12.16,12.16,0,0,0,1.87,6.11A11.22,11.22,0,0,0,77,72.58,11.39,11.39,0,0,0,81.18,73.44Z"/><path class="cls-1" d="M71.45,55.19s-3.21,9.27,6.88,13.29,14.07-4,14.07-4v2s-5.05,11.17-16.31,6.4c-10.47-5.47-5.38-17.64-5.38-17.64h.74Z"/></g></g></svg>