<svg xmlns="http://www.w3.org/2000/svg" viewBox="0 0 227.53 107.03"><defs><style>.cls-1{fill:#fff;}</style></defs><g id="Layer_2" data-name="Layer 2"><g id="Layer_1-2" data-name="Layer 1"><path class="cls-1" d="M4.12,106.8v-.39H5.3V90H3.36A4.54,4.54,0,0,0,1,93.11a7.27,7.27,0,0,0-.3,2.18H0l.55-5.71H12.11l.55,5.71H12a7.64,7.64,0,0,0-.31-2.18A4.56,4.56,0,0,0,9.28,90H7.34v16.44H8.51v.39Z"/><path class="cls-1" d="M24.85,98.29v8.12h1.22v.39H21.59v-.39h1.22V90H21.59v-.39h4.48V90H24.85v8h6V90H29.64v-.39h4.48V90H32.9v16.44h1.22v.39H29.64v-.39h1.22V98.29Z"/><path class="cls-1" d="M50.65,106.41a3.78,3.78,0,0,0,1.6-1.38,5.74,5.74,0,0,0,.79-1.77,7.17,7.17,0,0,0,.3-2.17H54l-.54,5.71H43v-.39h1.18V90H43v-.39H53.46L54,95.29h-.67a7.61,7.61,0,0,0-.3-2.18,6,6,0,0,0-.79-1.77A3.9,3.9,0,0,0,50.65,90H46.27v8h3.2V95.33h1V101h-1V98.37h-3.2v8Z"/><path class="cls-1" d="M78.51,89.58l.55,5.71h-.67a7.61,7.61,0,0,0-.3-2.18A4.56,4.56,0,0,0,75.7,90H71.32v8.56h3.2V95.88h1v5.69h-1V98.92h-3.2v7.5h1.13v.39H68.09v-.39h1.18V90H68.09v-.39H78.51Z"/><path class="cls-1" d="M95.46,89.58l4.46,16.83h1.18v.39H96.74v-.39h1.14l-1.35-5.14H91l-1.33,5.14h1.43v.39H88v-.39h1.31l4.37-16.83Zm-4.32,11.3h5.27L93.75,90.81Z"/><path class="cls-1" d="M117.64,106.41a3.78,3.78,0,0,0,1.6-1.38,5.74,5.74,0,0,0,.79-1.77,7.17,7.17,0,0,0,.3-2.17H121l-.55,5.71H110v-.39h1.18V90H110v-.39h4.36V90h-1.13v16.44Z"/><path class="cls-1" d="M144.08,89.58V90H143v16.44h1.12v.39h-4.35v-.39h1.18V90.88l-4.18,15.77h-.38L131.7,91.11V106.4h1.37v.39h-3.14v-.39h1.37V90h-1.37v-.39h3.41l4,13.39,3.54-13.39h3.23Z"/><path class="cls-1" d="M158.27,89.38a4.84,4.84,0,0,1,4,1.73,6.48,6.48,0,0,1,1.23,4.16v6.12a6.06,6.06,0,0,1-1.23,4,5.9,5.9,0,0,1-8.06,0,6.13,6.13,0,0,1-1.22-4V95.27a6.52,6.52,0,0,1,1.22-4.16A4.85,4.85,0,0,1,158.27,89.38Zm3,4.21a5.08,5.08,0,0,0-.62-2.69,3,3,0,0,0-4.75,0,5.05,5.05,0,0,0-.62,2.69v9.49c0,2.42,1,3.62,3,3.62s3-1.21,3-3.62V93.59Z"/><path class="cls-1" d="M183.2,90v12q0,5.07-4.82,5.07T173.56,102V90h-1.1v-.39h4.36V90h-1.17v12q0,4.42,3.58,4.42t3.58-4.42V90h-1.45v-.39h3.12V90Z"/><path class="cls-1" d="M197.53,106.8v-.39h1.19V90h-1.94a4.54,4.54,0,0,0-2.39,3.14,7.27,7.27,0,0,0-.3,2.18h-.67l.55-5.71h11.56l.55,5.71h-.67a8,8,0,0,0-.3-2.18A4.56,4.56,0,0,0,202.72,90h-1.94v16.44H202v.39Z"/><path class="cls-1" d="M218.26,98.29v8.12h1.22v.39H215v-.39h1.22V90H215v-.39h4.48V90h-1.22v8h6V90h-1.22v-.39h4.48V90h-1.22v16.44h1.22v.39h-4.48v-.39h1.22V98.29Z"/><path class="cls-1" d="M118.8,74.6H94a12.21,12.21,0,0,0,4.48-2.31,7.59,7.59,0,0,0,2.71-4.13V6.44a7.59,7.59,0,0,0-2.71-4.13A12.21,12.21,0,0,0,94,0h49.44l2,12.77a40.89,40.89,0,0,0-11-8.32A27.93,27.93,0,0,0,121.3,1.07H109.54V38.85h15.09A59.67,59.67,0,0,0,130.77,37a43.68,43.68,0,0,0,6.09-2.68c1.77-1,2.83-1.91,3.17-2.84v16c-.35-.93-1.4-1.9-3.17-2.9a40.34,40.34,0,0,0-6.09-2.74,59.67,59.67,0,0,0-6.14-1.88H109.54V68.15a7,7,0,0,0,3.85,4.51A23.89,23.89,0,0,0,118.8,74.6Z"/></g></g></svg>