<?xml version="1.0" encoding="utf-8"?>
<!-- Generator: Adobe Illustrator 26.2.0, SVG Export Plug-In . SVG Version: 6.00 Build 0)  -->
<svg version="1.1" id="Layer_1" xmlns="http://www.w3.org/2000/svg" xmlns:xlink="http://www.w3.org/1999/xlink" x="0px" y="0px"
	 viewBox="0 0 481.57 471.16" style="enable-background:new 0 0 481.57 471.16;" xml:space="preserve">
<style type="text/css">
	.st0{fill:#EC2429;}
	.st1{fill:#FFFFFF;}
	.st2{fill:#ED2127;}
	.st3{fill:#A7B7C0;}
	.st4{fill:#9AAEB8;}
	.st5{fill:#B4C1C7;}
	.st6{fill:#B5C1C8;}
	.st7{fill:#9EB0B9;}
	.st8{fill:#94A9B4;}
	.st9{fill:#8FA4B1;}
	.st10{fill:#8CA2AF;}
	.st11{fill:#B3C0C6;}
	.st12{fill:#879EAB;}
	.st13{fill:#565656;}
	.st14{fill:#535454;}
	.st15{fill:#869DAA;}
	.st16{fill:#97A9B2;}
	.st17{fill:#555554;}
	.st18{fill:#98AAB3;}
	.st19{fill:#595A5A;}
	.st20{fill:#96A8B2;}
	.st21{fill:#515151;}
	.st22{fill:#9AABB4;}
	.st23{fill:#505050;}
	.st24{fill:#A7A6A6;}
</style>
<g>
	<polygon class="st0" points="-856.16,65.22 -881.59,101.43 -884.41,133 -893.82,167.89 -909.33,181.74 -909.33,212.75 
		-897.7,244.87 -877.21,265.92 -856.16,271.46 -846.19,281.43 -827.36,293.06 -812.41,312.11 -785.83,317.98 -762.57,317.98 
		-735.98,317.98 -721.59,306.88 -709.4,290.29 -696.59,285.3 -688.91,272.01 -663.87,265.92 -649.59,244.87 -637.6,227.49 
		-633.53,203.89 -633.53,180.63 -646.27,165.12 -656.79,150.72 -661.22,125.25 -663.87,105.31 -681.22,83.17 -691.41,72.77 
		-707.19,65.22 -727.68,58.24 -768.86,65.22 -793.58,61.01 -821.83,58.24 -846.19,69.31 	"/>
	<path class="st0" d="M-881.64,38.02c0,0-79.75-27.41-107.16,70.61c-24.92,72.27-5.81,95.53-5.81,95.53s9.14,22.43,49.01,40.71
		c49.01-17.45,49.01-17.45,49.01-17.45l1.66-44.03l19.11-35.72V107.8l26.58-24.92L-881.64,38.02z"/>
	<path class="st0" d="M-663.87,38.45c0,0,1.97-84.78-100.32-81.18c-76.85-1.86-93.33,23.54-93.33,23.54s-18.71,15.59-24.07,59.37
		c31.65,41.65,31.65,41.65,31.65,41.65l42.7-11.82l40.05,7.43l38.21-12.15l31.98,17.88L-663.87,38.45z"/>
	<path class="st0" d="M-592.46,240.97c0,0,80.39-27,42.19-121.96c-24.41-72.9-53.9-79.74-53.9-79.74s-21.03-12.28-64.02-2.43
		c-28.39,43.94-28.39,43.94-28.39,43.94l25.65,36.12l6.65,40.19l24.43,31.79l-5.93,36.16L-592.46,240.97z"/>
	<path class="st0" d="M-768.69,368.95c0,0,49.08,69.15,128.95,5.13c62.73-44.44,60.76-74.65,60.76-74.65s5.68-23.68-16.18-61.99
		c-50.27-14.48-50.27-14.48-50.27-14.48l-27.17,35l-36.55,17.99l-23.37,32.58l-36.33,4.78L-768.69,368.95z"/>
	<path class="st0" d="M-946.15,243.59c0,0-49.88,68.58,36.28,123.85c62.13,45.28,90.13,33.77,90.13,33.77s24.26-2.17,53.59-35.11
		c-2.32-52.27-2.32-52.27-2.32-52.27l-41.83-14.58l-28.71-28.9l-38.33-11.76l-16.12-32.9L-946.15,243.59z"/>
</g>
<g>
	<path class="st1" d="M-867.52,72.91c0,0-18.28-38.21-47.35-19.94c-10.24,7.31-15.78,24.92-15.78,24.92s-0.83,23.26-9.97,51.5
		c-9.14,28.24-22.43,59.81-22.43,59.81s-4.15,20.77,9.14,30.74c23.47,19.53,42.37,0,42.37,0s-9.75-9.97-4.04-35.72
		c5.29-18.69,19.83-29.08,19.83-29.08l-7.48-11.63l13.29-7.06C-889.95,136.46-905.73,105.73-867.52,72.91z"/>
	<path class="st1" d="M-693,62.62c0,0,31.05-29.16,4.68-51.45c-10.12-7.58-28.69-7.53-28.69-7.53s-22.54,6.29-52.4,6.14
		c-29.85-0.15-64.15-3.27-64.15-3.27s-21.17,2.35-26.67,18.12c-11.56,28.44,12.91,40.6,12.91,40.6s6.58-12.38,33-14.76
		c19.52-0.62,33.9,10.14,33.9,10.14l8.87-10.71l10.82,10.59C-760.74,60.48-736.09,35.99-693,62.62z"/>
	<path class="st1" d="M-625.1,221.8c0,0,37.99,19.27,49.98-13.12c3.68-12.1-2.69-29.54-2.69-29.54s-13.59-19.05-23.61-47.18
		c-10.02-28.12-18.76-61.43-18.76-61.43s-9.41-19.11-26.12-18.91c-30.67-1.19-33.78,25.95-33.78,25.95s13.89,1.97,25.11,26.01
		c7.23,18.14,2,35.33,2,35.33l13.09,4.69l-6.27,13.77C-646.15,157.39-614.73,172.22-625.1,221.8z"/>
	<path class="st1" d="M-759.77,332.16c0,0-7.47,41.94,27,44.05c12.65,0.03,27.5-11.11,27.5-11.11s14.31-18.52,38.34-36.24
		c24.02-17.72,53.38-35.72,53.38-35.72s15.57-14.54,10.55-30.47c-7.72-29.71-34.61-24.84-34.61-24.84s2.12,13.86-17.64,31.56
		c-15.28,12.17-33.24,12.13-33.24,12.13l-0.71,13.88l-15-2.02C-704.19,293.39-709.32,327.75-759.77,332.16z"/>
	<path class="st1" d="M-908.45,240.3c0,0-42.13,6.3-33.13,39.64c4.01,12,19.3,22.52,19.3,22.52s22.11,7.66,46.58,24.78
		c24.45,17.11,50.88,39.2,50.88,39.2s18.74,10.12,32.24,0.28c25.69-16.8,12.5-40.73,12.5-40.73s-12.46,6.43-35.53-6.65
		c-16.41-10.6-22.1-27.64-22.1-27.64l-13.39,3.75l-2.87-14.86C-853.97,280.61-888.17,286.72-908.45,240.3z"/>
	<path class="st1" d="M-774.97,140.98c0,0-1.72-59.81-28.17-64.17c-13.82-1.73-21.32,13.24-21.32,13.24s-9.57,15.09-20.7,16.95
		c-11.13,1.86-11.75,3.14-18.3,10.16c-8.81,11.3,1.31,23.75,1.31,23.75s6.1,9.95,18.44,15.1c12.35,5.14,32.23,11.12,32.23,11.12
		L-774.97,140.98z"/>
	<path class="st1" d="M-729.48,169.51c0,0,57.09-17.89,54.12-44.53c-2.08-13.77-18.53-16.92-18.53-16.92s-17.12-5.11-21.93-15.32
		c-4.81-10.21-6.21-10.46-14.75-14.85c-13.27-5.41-22.5,7.71-22.5,7.71s-7.92,8.57-9.52,21.85c-1.6,13.28-1.95,34.04-1.95,34.04
		L-729.48,169.51z"/>
	<path class="st1" d="M-739.32,222.28c0,0,35.81,47.93,59.95,36.29c12.31-6.53,9.82-23.09,9.82-23.09s-0.85-17.85,7.18-25.77
		c8.03-7.92,7.8-9.33,9.12-18.84c0.7-14.31-14.73-18.68-14.73-18.68s-10.71-4.64-23.77-1.74c-13.06,2.89-32.76,9.44-32.76,9.44
		L-739.32,222.28z"/>
	<path class="st1" d="M-794.48,224.63c0,0-34.7,48.74-16.23,68.18c9.98,9.72,24.99,2.3,24.99,2.3s16.73-6.27,26.73-1.04
		c10,5.22,11.27,4.58,20.72,2.93c13.84-3.71,13.28-19.74,13.28-19.74s1.14-11.61-5.61-23.16c-6.75-11.55-19-28.31-19-28.31
		L-794.48,224.63z"/>
	<path class="st1" d="M-816.66,174.96c0,0-57.75-15.66-69.58,8.39c-5.66,12.73,6.5,24.24,6.5,24.24s11.68,13.52,10.23,24.72
		c-1.44,11.19-0.39,12.16,4.43,20.46c8.27,11.7,23.11,5.62,23.11,5.62s11.29-2.95,19.79-13.28c8.5-10.33,19.97-27.63,19.97-27.63
		L-816.66,174.96z"/>
</g>
<ellipse transform="matrix(0.9958 -0.0917 0.0917 0.9958 -20.5005 -69.9014)" class="st2" cx="-771.07" cy="188.18" rx="63.48" ry="63.48"/>
<g>
	<path class="st3" d="M148.83,107.59c-3-8.31-6.02-16.61-8.99-24.93c-0.92-2.59-1.71-5.23-2.55-7.85c1.79-0.2,3.57-0.57,5.36-0.58
		c13.85-0.07,27.69-0.08,41.54-0.1c3.27,8.65,6.55,17.3,10.01,26.44c8.62-6.41,15.29-14.18,21.58-22.32
		c15.18-0.01,30.37,0,45.55-0.05c1.29,0,2.59-0.41,3.88-0.63c4.03,4.7,7.92,9.53,12.15,14.05c2.96,3.17,6.37,5.92,10.05,9.29
		c3.65-9.74,7.05-18.8,10.44-27.85c14.16,0,28.32-0.04,42.48,0.06c1.4,0.01,2.79,0.8,4.19,1.22c-1.33,4.05-2.59,8.13-4.01,12.16
		c-2.69,7.61-5.47,15.19-8.21,22.78c-26.3,0.01-52.59,0.02-78.89,0.03c-7.2-0.86-10.63-5.69-12.65-12.28
		c-1.47,5.3-3.58,9.78-9.31,11.18c-2.23-0.41-4.46-1.18-6.69-1.18c-23.62-0.09-47.24-0.07-70.87-0.03
		C152.21,106.99,150.52,107.38,148.83,107.59z"/>
	<path class="st4" d="M253.42,109.3c26.3-0.01,52.59-0.02,78.89-0.03c-3.78,10.74-7.57,21.48-11.35,32.22
		c-23.22-0.01-46.43-0.04-69.65,0.02c-1.23,0-2.46,0.77-3.68,1.18c-3.1-5.44-5.43-11.13-5.57-17.49c-0.16-7.5,3.4-12.65,10.44-15.32
		C252.83,109.74,253.11,109.49,253.42,109.3z"/>
	<path class="st5" d="M184.19,74.13c-13.85,0.02-27.69,0.03-41.54,0.1c-1.79,0.01-3.57,0.38-5.36,0.58
		c-2.3-6.27-4.53-12.56-6.92-18.79c-1.95-5.08-4.02-10.11-6.15-15.11c-2.04-4.79-5.67-7.79-10.73-9.13
		c-0.69-0.18-1.25-0.82-1.87-1.25c0.73-0.38,1.45-1.09,2.18-1.1c22.87-0.06,45.75-0.06,68.62-0.01c0.72,0,1.43,0.53,2.15,0.82
		c-0.6,0.59-1.11,1.34-1.82,1.73c-0.9,0.5-1.99,0.65-2.96,1.06c-5.16,2.17-7.23,5.87-5.55,11.25c2.78,8.92,5.97,17.72,8.98,26.57
		C183.59,71.92,183.87,73.03,184.19,74.13z"/>
	<path class="st6" d="M344.52,74.34c-1.4-0.43-2.79-1.22-4.19-1.22c-14.16-0.09-28.32-0.06-42.48-0.06
		c2.6-7.48,5.23-14.96,7.78-22.46c0.77-2.26,1.42-4.56,1.97-6.88c1.08-4.52-0.42-7.82-4.53-10c-1.43-0.76-3.02-1.21-4.46-1.94
		c-0.55-0.28-0.9-0.97-1.35-1.47c0.6-0.31,1.18-0.67,1.81-0.9c0.34-0.12,0.76-0.02,1.14-0.02c22.31,0,44.62,0,66.93,0
		c0.76,0,1.55-0.05,2.28,0.12c0.32,0.07,0.72,0.64,0.73,0.99c0.01,0.35-0.37,1-0.65,1.05c-10.7,1.63-12.8,10.73-15.99,18.67
		c-2.96,7.35-5.4,14.91-8.09,22.37C345.23,73.19,344.83,73.75,344.52,74.34z"/>
	<path class="st7" d="M148.83,107.59c1.69-0.21,3.38-0.59,5.08-0.6c23.62-0.04,47.24-0.06,70.87,0.03c2.23,0.01,4.46,0.77,6.69,1.18
		c-0.91,0.46-1.81,0.93-2.72,1.39c10.36,3.66,13.03,13.62,9.69,21.6c-1.31-0.22-2.62-0.63-3.93-0.64c-25.86-0.03-51.71-0.01-77.57,0
		C154.23,122.9,151.53,115.25,148.83,107.59z"/>
	<path class="st8" d="M156.93,130.56c25.86-0.01,51.71-0.03,77.57,0c1.31,0,2.62,0.41,3.93,0.64c-1.73,7.95-5.57,14.87-10.5,21.24
		c-1.31-0.21-2.62-0.61-3.92-0.61c-19.87-0.03-39.73-0.01-59.6,0C161.91,144.74,159.42,137.65,156.93,130.56z"/>
	<path class="st9" d="M247.63,142.68c1.23-0.41,2.45-1.18,3.68-1.18c23.21-0.06,46.43-0.03,69.65-0.02
		c-2.84,8.07-5.68,16.13-8.52,24.2c-1.2-0.22-2.4-0.64-3.6-0.64c-13.44-0.05-26.88-0.05-40.32,0c-1.2,0-2.4,0.4-3.6,0.62
		C258.02,158.86,252,151.39,247.63,142.68z"/>
	<path class="st10" d="M164.4,151.83c19.87-0.01,39.73-0.03,59.6,0c1.31,0,2.61,0.4,3.92,0.61c-5.08,7.52-11.24,14.07-18.02,20.06
		c-0.93-0.39-1.85-1.1-2.79-1.11c-11.93-0.07-23.86-0.04-35.79-0.03C169.03,164.85,166.72,158.34,164.4,151.83z"/>
	<path class="st11" d="M265.21,77.57c-1.29,0.22-2.59,0.63-3.88,0.63c-15.18,0.05-30.37,0.04-45.55,0.05
		c6.61-10.85,13.33-21.63,19.77-32.58c2.01-3.41,3.24-7.28,5.91-12.07c0.19,0.73,0.3,1.49,0.57,2.2
		c5.37,14.47,13.58,27.37,22.2,40.04C264.59,76.38,264.88,76.99,265.21,77.57z"/>
	<path class="st12" d="M264.92,165.66c1.2-0.22,2.4-0.62,3.6-0.62c13.44-0.04,26.88-0.05,40.32,0c1.2,0,2.4,0.42,3.6,0.64
		c-3.74,10.49-7.47,20.97-11.37,31.89C288.32,187.22,275.82,177.36,264.92,165.66z"/>
	<path class="st13" d="M331.92,338.84c-5.65,0.1-6.41,4.35-7.61,8.16c-3.31,10.47-6.56,20.95-9.85,31.43
		c-0.29,0.92-0.69,1.81-1.04,2.71c-0.28,0-0.57-0.01-0.85-0.01c-3.81-10.73-7.62-21.47-11.75-33.13
		c-3.98,11.57-7.69,22.35-11.39,33.13c-0.3,0.01-0.6,0.02-0.9,0.03c-0.34-0.88-0.75-1.74-1.02-2.65
		c-3.09-10.24-6.16-20.49-9.23-30.73c-1.96-6.54-1.97-6.54-7.58-9.68c5.45,0,10.52,0,15.64,0c-0.09,0.29-0.1,0.57-0.21,0.61
		c-4.35,1.72-4.39,1.73-3.08,6.14c2.27,7.69,4.6,15.37,6.92,23.04c0.2,0.68,0.53,1.32,1.1,2.72c3.77-11.22,7.3-21.73,10.83-32.24
		c0.33-0.03,0.65-0.06,0.98-0.1c3.82,10.56,7.64,21.12,11.47,31.69c0.2,0.01,0.4,0.02,0.6,0.04c1.68-5.56,3.37-11.12,5.02-16.68
		c0.9-3.02,1.8-6.04,2.59-9.09c0.89-3.42,0.35-4.23-3.02-5.05c-0.68-0.17-1.34-0.4-1.93-1.09c4.63,0,9.26,0,13.88,0
		C331.63,338.33,331.77,338.59,331.92,338.84z"/>
	<path class="st14" d="M211.73,379.72c5.14-2.25,5.15-2.25,5.16-8.12c0.01-8.33,0.12-16.66-0.04-24.99
		c-0.11-6.17,0.95-5.98-5.15-8.38c5.28,0,10.55,0,15.93,0c-0.14,0.24-0.22,0.6-0.4,0.66c-4.88,1.48-4.91,1.51-4.92,6.73
		c-0.01,3.34,0,6.67,0,10.23c7.24,0,14.27,0,21.45,0c0-4.7,0.34-9.47-0.21-14.14c-0.16-1.34-2.89-2.38-4.36-3.49
		c4.88,0,10.14,0,15.41,0c-0.03,0.17-0.02,0.45-0.11,0.48c-5,1.74-5,1.74-5,7.29c0,8.91,0,17.81,0,26.72c0,4.89,0.04,4.93,4.74,6.24
		c0.26,0.07,0.51,0.18,0.44,0.81c-5.29,0-10.58,0-15.87,0c6.5-0.9,5.14-5.88,5.25-9.97c0.1-3.73,0.02-7.46,0.02-11.43
		c-7.22,0-14.32,0-21.57,0c0,5.7-0.13,11.41,0.12,17.1c0.05,1.05,1.49,2.17,2.51,2.99c0.64,0.52,1.68,0.54,2.48,1.26
		C222.31,379.72,217.02,379.72,211.73,379.72z"/>
	<path class="st13" d="M120.25,358.71c-0.01,12.94-8.94,22.37-21.16,22.34c-11.58-0.03-20.84-9.68-20.73-21.59
		c0.12-12.77,9.3-22.51,21.22-22.5C111.47,336.95,120.26,346.21,120.25,358.71z M84.32,357.8c0.75,6.93,2.04,13.32,7.34,18.1
		c6.47,5.84,15.8,4.33,19.53-3.5c4.39-9.22,3.89-18.61-1.27-27.44c-2.65-4.53-7.03-6.73-12.35-6.32c-5.07,0.39-8.57,3.4-10.36,7.92
		C85.8,350.14,85.25,354.04,84.32,357.8z"/>
	<path class="st15" d="M171.34,171.36c11.93-0.01,23.86-0.04,35.79,0.03c0.93,0.01,1.86,0.72,2.79,1.11
		c-4.17,3.72-8.28,7.51-12.51,11.15c-4.68,4.02-9.47,7.92-14.22,11.86c-0.72,0.6-1.49,1.12-2.59,1.94
		C177.43,188.55,174.38,179.95,171.34,171.36z"/>
	<path class="st16" d="M246.67,238.57c-0.45,0.35-0.86,0.89-1.36,1c-1.66,0.38-3.67,1.27-4.95,0.68c-1.02-0.47-1.55-2.81-1.61-4.34
		c-0.07-1.76,0.81-3.54,0.91-5.33c0.05-0.92-0.7-1.88-1.09-2.82c-0.76,0.68-1.93,1.24-2.19,2.08c-0.76,2.45-1.16,5.02-1.69,7.54
		c-0.79,3.77-0.79,3.77-5.05,3.28c0.1-0.97,0.19-1.94,0.32-3.22c-1.4,1.02-2.44,2.2-3.72,2.61c-1.4,0.44-3.36,0.71-4.46,0.05
		c-0.91-0.56-1.35-2.62-1.25-3.95c0.19-2.46,0.96-4.86,1.43-7.3c0.77-3.94,0.75-3.95,5.14-3.16c-0.66,3.24-1.36,6.47-1.93,9.73
		c-0.13,0.74,0.18,1.56,0.28,2.35c0.8-0.12,1.92,0.05,2.35-0.41c1.25-1.34,2.47-2.82,3.23-4.47c0.7-1.52,0.78-3.33,1.15-5.01
		c0.53-2.37,1.92-3.11,4.25-2.42c0.86,0.25,1.87,0.45,2.7,0.24c3.1-0.77,5.38,0.92,5.18,4.13c-0.09,1.52-0.5,3.01-0.69,4.53
		c-0.16,1.28-1.39,3.28,0.78,3.41c1.1,0.07,2.88-1.74,3.37-3.06c1.04-2.84,1.43-5.92,2.19-9.4c1.41,0.2,2.81,0.44,4.23,0.58
		c0.67,0.07,1.4,0.08,2.04-0.1c3.39-0.95,5.69,0.92,5.31,4.44c-0.17,1.61-0.71,3.19-0.79,4.8c-0.05,0.96,0.46,1.95,0.72,2.92
		c1-0.83,2.37-1.48,2.89-2.54c0.64-1.31,0.42-3.01,0.83-4.47c0.72-2.59,2.11-4.72,4.81-5.67c2.06-0.73,4.14-0.71,5.44,1.2
		c1.35,1.98,0.42,3.96-1.12,5.41c-1.08,1.02-2.47,1.84-3.87,2.36c-1.36,0.5-2.57,1.12-1.58,2.5c0.66,0.91,2.44,1.84,3.35,1.56
		c1.54-0.46,2.79-1.88,4.17-2.89c0.07,0.34,0.13,0.67,0.2,1c-3.31,5.24-8.21,5.95-12.18,1.7c-1.05,0.78-2.02,1.73-3.18,2.32
		c-2.79,1.44-5.39-0.06-5.32-3.16c0.05-2.08,0.77-4.13,0.89-6.21c0.06-1.06-0.53-2.16-0.82-3.25c-0.83,0.81-2.08,1.47-2.42,2.44
		c-0.77,2.24-1.1,4.64-1.6,6.97c-0.83,3.85-0.83,3.86-4.96,3.53c-0.09-0.67-0.19-1.38-0.29-2.1c0.07-0.14,0.14-0.28,0.21-0.42
		C246.85,238.32,246.76,238.44,246.67,238.57z M268.68,233.26c3.29-0.49,4.83-2,5.39-4.39c0.15-0.65-0.48-1.48-0.76-2.23
		c-0.66,0.29-1.62,0.4-1.91,0.9C270.44,229.21,269.72,231.02,268.68,233.26z"/>
	<path class="st17" d="M244.39,293.31c-1.17,4.76-1.95,9.59-3.59,14.1c-1.74,4.78-5.29,7.93-10.8,7.94
		c-5.65,0.01-9.04-3.28-11.01-8.12c-3.71-9.16-3.68-18.45-0.02-27.62c1.95-4.89,5.49-8.13,11.04-8.13c5.52,0,9.28,3.1,11.02,8.09
		C242.55,283.92,243.27,288.56,244.39,293.31z M238.21,296.93c-0.24-6.42-0.3-12.74-2.55-18.77c-0.99-2.65-2.46-5.15-5.85-5.09
		c-3.23,0.06-4.85,2.4-5.5,5.04c-1.02,4.15-2.14,8.45-2.04,12.66c0.14,6.05,1.08,12.13,2.19,18.1c0.49,2.62,2.4,4.92,5.59,4.96
		c3.22,0.04,4.88-2.28,5.62-4.91C236.78,305,237.39,300.93,238.21,296.93z"/>
	<path class="st14" d="M344.16,356.66c1.51,0,2.73,0.01,3.94,0c4.18-0.05,9.03,1.2,10.17-5.15c0,4.09,0,8.18,0,12.35
		c-0.33-0.1-0.5-0.11-0.51-0.16c-1.04-5.1-4.72-5.43-8.89-5.01c-1.5,0.15-3.02,0.02-4.67,0.02c0,5.56-0.03,10.81,0.01,16.06
		c0.02,2.24,1.35,3.3,3.47,3.35c2.87,0.06,5.78,0.29,8.6-0.08c1.52-0.2,3.18-1.25,4.24-2.41c1.37-1.48,2.2-3.45,3.26-5.21
		c0.26,0.07,0.52,0.14,0.78,0.2c-0.61,3.05-1.22,6.1-1.83,9.15c-10.04,0-19.9,0-30.12,0c0.44-0.46,0.6-0.78,0.78-0.79
		c5.43-0.5,5.31-2.18,5.32-6.9c0.01-8.52,0.12-17.05-0.03-25.57c-0.11-6.01,1.02-5.69-4.91-8.33c8.97,0,17.93,0,27.2,0
		c0.16,2.61,0.34,5.54,0.51,8.48c-0.25,0.06-0.5,0.13-0.75,0.19c-0.6-1.32-1.24-2.61-1.79-3.95c-0.81-1.99-2.23-3.03-4.39-3.06
		c-2.78-0.03-5.56-0.17-8.32-0.01c-0.72,0.04-1.97,1.05-1.99,1.64C344.09,346.42,344.16,351.37,344.16,356.66z"/>
	<path class="st14" d="M125.57,338.12c5.05,0,10.09,0,15.16,0c-0.05,0.26-0.03,0.55-0.12,0.59c-4.85,1.89-4.85,1.88-4.85,7.21
		c0,5.93-0.1,11.87,0.05,17.8c0.06,2.26,0.43,4.59,1.11,6.74c1.68,5.34,6.41,8.11,12.36,7.52c6.41-0.63,9.61-3.31,9.99-9.62
		c0.48-7.91,0.45-15.86,0.29-23.78c-0.1-4.55-0.49-4.62-4.9-5.55c-0.34-0.07-0.65-0.27-0.93-0.83c4.48,0,8.95,0,13.43,0
		c-6.22,1.04-4.88,5.91-5.02,9.91c-0.23,6.5-0.07,13.02-0.52,19.49c-0.42,6.11-3.35,10.87-9.58,12.54
		c-6.57,1.77-13.19,1.69-17.97-3.93c-1.94-2.29-3.09-5.8-3.34-8.85c-0.52-6.37-0.17-12.81-0.26-19.22
		C130.42,344.13,131.63,339.4,125.57,338.12z"/>
	<path class="st18" d="M202.38,435.58c-3.76,3.68-5.17,3.93-8.24,1.49c-4.23,2.67-6.26,2.26-7.57-1.7
		c-2.84,1.73-5.36,5.49-9.09,1.63c-3.71,2.69-5.83,2.36-7.67-1.22c-1.28,0.78-2.49,1.72-3.86,2.3c-3.88,1.66-6.87-0.23-6.62-4.35
		c0.14-2.31,0.73-4.71,1.67-6.82c1.13-2.55,4.13-3.7,6.56-2.51c0.97,0.48,1.87,2.42,1.73,3.56c-0.31,2.5-2.4,3.67-4.66,4.57
		c-0.71,0.28-1.1,1.33-1.64,2.03c0.93,0.62,2.32,1.97,2.7,1.73c1.67-1.07,3.12-2.53,4.48-4c0.45-0.49,0.36-1.46,0.59-2.18
		c1.43-4.55,3.82-6.14,8.7-5.68c1.2-2.28,0.2-6.72,5.5-5.66c-0.89,4.37-1.89,8.78-2.64,13.23c-0.21,1.23-1.91,3.44,0.57,3.65
		c1.24,0.1,2.89-1.91,3.93-3.29c0.75-0.99,0.65-2.57,1.17-3.78c1.46-3.42,3.83-4.6,8.07-4.06c1.24-2.28,0.14-6.98,5.54-5.67
		c-0.93,4.53-1.92,9.07-2.78,13.62c-0.19,1.03,0.03,2.14,0.07,3.21c0.99-0.17,1.99-0.35,2.98-0.52
		C202.04,435.3,202.21,435.44,202.38,435.58z M173.38,433.87c0.6,0.84,1.16,1.63,1.72,2.41c0.85-0.6,2.16-1.04,2.45-1.85
		c0.7-1.96,1.02-4.07,1.29-6.15c0.09-0.71-0.4-1.49-0.62-2.24c-0.8,0.37-2.03,0.54-2.33,1.16
		C174.91,429.25,174.26,431.45,173.38,433.87z M195.68,427.45c-0.18-0.29-0.45-1.23-0.91-1.34c-0.58-0.13-1.77,0.26-1.93,0.71
		c-0.91,2.56-1.68,5.18-2.27,7.84c-0.09,0.42,1.12,1.64,1.53,1.56c0.78-0.16,1.84-0.88,2.06-1.58
		C194.82,432.45,195.14,430.17,195.68,427.45z M166.51,424.55c-1.38,2.58-2.42,4.52-3.69,6.9
		C167.19,430.63,168.61,428.29,166.51,424.55z"/>
	<path class="st19" d="M406.79,379.76c5.65-2.7,5.66-2.7,5.66-9.22c0-10.14,0-20.27,0-30.59c-3.35,0-6.96-0.9-9.66,0.27
		c-2.43,1.05-3.87,4.39-5.97,6.99c0.27-3.42,0.53-6.79,0.75-9.6c6.08,0.09,11.92,0.25,17.76,0.25c5.76,0.01,11.53-0.13,17.82-0.22
		c0.13,2.61,0.3,6.02,0.5,10.07c-1.95-2.94-2.95-6.27-4.99-7.11c-3.08-1.27-6.87-0.82-10.76-1.13c0,1.45,0,2.46,0,3.47
		c0,9.85,0,19.71,0,29.56c0,5.06,0.1,5.17,4.94,6.38c0.3,0.08,0.56,0.31,1.53,0.88C417.99,379.76,412.39,379.76,406.79,379.76z"/>
	<path class="st19" d="M207.36,337.65c0,2.7,0,6.08,0,9.43c-1.54-2.31-2.55-5.64-4.58-6.48c-3.08-1.27-6.87-0.81-10.75-1.12
		c0,1.46,0,2.47,0,3.48c0,9.85,0,19.71,0,29.56c0,5.05,0.09,5.15,4.95,6.37c0.3,0.08,0.56,0.32,1.51,0.88c-6.37,0-11.97,0-17.59,0
		c0.06-0.27,0.06-0.56,0.15-0.59c5.51-1.87,5.53-1.86,5.53-7.78c0.01-10.42,0-20.85,0-31.44c-3.35,0-6.96-0.9-9.67,0.27
		c-2.43,1.05-3.86,4.39-5.96,6.99c0.27-3.43,0.53-6.8,0.75-9.61c6.08,0.09,11.92,0.25,17.76,0.26
		C195.21,337.87,200.98,337.73,207.36,337.65z"/>
	<path class="st17" d="M70.19,346.7c-0.35-0.84-0.7-1.67-1.05-2.51c-1.67-4.02-4.3-5.8-8.37-5.67c-2.99,0.1-5.13,1.65-6.06,4.4
		c-1.26,3.71-0.16,7.41,3.24,9.87c2.94,2.12,6.14,3.88,9.11,5.97c2.99,2.11,5.15,4.85,5.5,8.68c0.72,8.02-5.49,13.87-14.41,13.59
		c-7.78-0.25-10.07-2.73-9.75-10.58c0-0.06,0.13-0.12,0.53-0.48c0.38,0.75,0.64,1.47,1.08,2.06c1.46,1.96,2.69,4.24,4.55,5.72
		c3.17,2.53,7.74,2.23,10.34-0.13c2.65-2.41,3.5-7.23,1.42-10.57c-1.17-1.88-2.94-3.48-4.7-4.88c-2.24-1.77-4.84-3.09-7.12-4.82
		c-4.46-3.39-6-7.95-4.5-12.6c1.47-4.53,5.59-7.48,10.96-7.81c0.57-0.04,1.15-0.01,1.72-0.01C70.04,336.98,71.61,338.87,70.19,346.7
		z"/>
	<path class="st17" d="M391.7,347.26c-0.58-1.41-0.78-2.43-1.35-3.17c-1.31-1.69-2.52-3.72-4.28-4.75c-3.17-1.86-7.25-0.85-9.1,1.67
		c-2.25,3.05-1.98,7.79,0.87,10.54c1.49,1.44,3.35,2.52,5.08,3.7c1.74,1.18,3.61,2.18,5.3,3.42c4.98,3.67,6.75,8.33,5.22,13.46
		c-1.53,5.12-6.23,8.63-12.13,8.89c-1.51,0.07-3.06-0.1-4.56-0.34c-6.04-0.97-8.03-4.08-6.61-11.17c0.59,1.34,0.8,2.24,1.31,2.93
		c1.41,1.88,2.67,4.02,4.48,5.43c3.09,2.4,7.56,2.11,10.12-0.12c2.71-2.36,3.65-7.16,1.62-10.54c-1.14-1.9-2.89-3.53-4.65-4.93
		c-2.23-1.78-4.84-3.09-7.13-4.81c-4.51-3.39-6.11-7.9-4.67-12.55c1.44-4.66,5.65-7.67,11.14-7.95c0.86-0.04,1.72-0.03,2.59,0
		C391.26,337.18,393.31,340.05,391.7,347.26z"/>
	<path class="st14" d="M186.25,280.88c2.07-4,4.09-7.99,9.25-9.06c4.41-0.91,8.17,0.01,11.16,3.44c3.29,3.76,3.8,10.4,0.4,15.3
		c-3.64,5.24-8.01,9.97-12.08,14.91c-1.07,1.3-2.23,2.53-3.74,4.22c5.45,0,10.31,0.32,15.1-0.16c1.96-0.2,3.74-2.13,5.89-3.44
		c-0.81,2.73-1.63,5.51-2.44,8.28c-8.22,0-16.24,0-24.94,0c0.9-1.12,1.49-1.87,2.1-2.6c4.06-4.83,8.29-9.53,12.14-14.53
		c2.89-3.75,4.83-8,4.6-12.98c-0.15-3.47-1.03-6.46-4.49-7.98c-3.22-1.41-7.25-0.37-9.94,2.48c-0.82,0.87-1.57,1.8-2.36,2.7
		C186.68,281.27,186.47,281.08,186.25,280.88z"/>
	<path class="st14" d="M275.51,306.03c-0.84,2.78-1.67,5.56-2.52,8.36c-8.17,0-16.2,0-24.91,0c0.88-1.11,1.45-1.87,2.06-2.59
		c4.06-4.83,8.29-9.53,12.14-14.52c2.89-3.74,4.84-7.99,4.63-12.97c-0.15-3.47-1-6.47-4.46-8c-3.22-1.42-7.25-0.4-9.95,2.44
		c-0.83,0.87-1.58,1.81-2.68,2.49c1.06-3.19,2.4-6.25,5.44-8c4.01-2.31,8.24-2.62,12.24-0.06c4.27,2.73,5.68,7.06,4.74,11.76
		c-0.6,2.98-1.99,6.04-3.81,8.48c-3.49,4.66-7.54,8.9-11.35,13.32c-0.73,0.85-1.47,1.69-2.58,2.97c5.4,0,10.23,0.16,15.04-0.1
		c1.33-0.07,2.64-1.3,3.86-2.14c0.62-0.42,1.02-1.17,1.51-1.77C275.11,305.8,275.31,305.91,275.51,306.03z"/>
	<path class="st20" d="M212.11,218.33c0,5.57,0,11.18,0,16.8c0.19,0.05,0.38,0.09,0.56,0.14c1.8-4.97,3.54-9.96,5.43-14.9
		c0.37-0.97,1.27-1.74,1.92-2.61c0.31,0.21,0.63,0.43,0.94,0.64c-1.6,4.35-3.2,8.7-4.81,13.04c-0.8,2.15-1.88,4.23-2.41,6.44
		c-0.76,3.17-2.65,3.52-5.59,2.64c0-4.46,0-8.98,0-13.5c-0.22-0.05-0.44-0.1-0.66-0.16c-1.48,3.64-3.21,7.21-4.38,10.95
		c-0.99,3.19-2.86,3.56-5.79,2.75c0-6.68,0-13.35,0-20.05c-3.7,0.51-4.61,1.9-5.48,8.07c-2.58-0.57-3.25-1.93-2.24-4.52
		c1.48-3.77,6.73-6.51,11.85-5.86c0,5.43,0,10.92,0,16.42c0.3,0.05,0.59,0.09,0.89,0.14c1.61-4.63,3.21-9.26,4.83-13.88
		C208.3,217.66,208.37,217.62,212.11,218.33z"/>
	<path class="st18" d="M152.43,433.39c3.15-5.14,4.15-11.13,7.02-16.26c0.37,0.13,0.73,0.26,1.1,0.39
		c-0.31,1.19-0.53,2.42-0.96,3.58c-1.74,4.75-3.7,9.43-5.25,14.25c-0.86,2.67-2.07,3.97-5.18,2.99c0-4.23,0-8.58,0-12.94
		c-0.22-0.06-0.45-0.13-0.67-0.19c-0.67,1.64-1.35,3.28-2.02,4.92c-0.72,1.77-1.58,3.5-2.1,5.32c-0.81,2.85-2.42,3.89-5.53,2.77
		c0-6.17,0-12.45,0-18.78c-3.95,0.69-4.66,3.17-4.99,7.34c-2.54-0.25-3.4-2.14-1.88-4.54c2.35-3.69,5.9-5.2,10.63-5.33
		c0,5.31,0,10.49,0,15.68c0.28,0.06,0.57,0.12,0.85,0.18c0.69-1.75,1.42-3.48,2.05-5.25c0.93-2.61,1.93-5.2,2.63-7.88
		c0.62-2.34,1.9-2.84,4.29-2.04C152.43,422.82,152.43,428.1,152.43,433.39z"/>
	<path class="st21" d="M295.05,314.28c-4.96,0-9.92,0-14.92,0c0.08-0.34,0.08-0.64,0.16-0.66c4.81-1.52,4.81-1.52,4.81-6.79
		c0-7.94,0-15.88,0-23.82c0-5.65,0-5.65-5.18-7.6c3.5-1.22,6.75-2.36,10.29-3.59c0.06,0.94,0.16,1.82,0.16,2.71
		c0.01,10.52,0.01,21.04,0.01,31.56C290.37,311.7,290.37,311.7,295.05,314.28z"/>
	<path class="st18" d="M332.67,436.29c1.75-0.6,3.08-0.64,3.65-1.33c1.84-2.2,3.99-4.42,4.92-7.03c0.93-2.64,1.91-4.19,4.81-3.97
		c0.76,2.66,1.65,5.34,2.26,8.08c0.69,3.09-0.57,5.44-3.08,6.29c-3.35,1.14-5.98,0.13-7.55-2.9c-5,3.96-5.72,4.1-9,1.6
		c-0.54,0.39-1.08,0.91-1.72,1.23c-2.99,1.49-5.64,0.02-5.47-3.28c0.12-2.32,0.62-4.75,1.53-6.88c1.41-3.27,3.68-4.11,7.8-3.59
		c1.67-5.88,1.67-5.88,5.48-5.66C335.15,424.35,334.02,429.81,332.67,436.29z M324.79,433.57c0.69,1.06,1.24,1.9,1.79,2.74
		c0.8-0.79,1.98-1.44,2.33-2.39c0.66-1.76,0.92-3.7,1.19-5.58c0.1-0.71-0.22-1.48-0.34-2.23c-0.83,0.3-2.12,0.38-2.41,0.95
		C326.34,429.07,325.67,431.24,324.79,433.57z M343,427.43c-3.2,1.58,1.83,6.86-3.74,7.95c1.08,0.74,2.72,1.69,3.13,1.31
		c0.97-0.89,1.87-2.42,1.86-3.68C344.24,431.09,343.43,429.17,343,427.43z"/>
	<path class="st18" d="M314.02,438.51c-1.22,0-2.35,0-3.63,0c0-0.85,0-1.65,0-2.75c-2.73,2.35-5.33,4.52-8.27,1.44
		c-1.52,0.54-2.79,1.24-4.12,1.41c-2.07,0.27-3.64-1.11-3.4-2.96c0.39-3.04,1.18-6.14,2.47-8.9c0.57-1.22,2.71-2.07,4.28-2.37
		c2.07-0.4,4.28-0.1,6.91-0.1c-0.58,2.85-1.22,5.39-1.55,7.97c-0.15,1.15,0.33,2.38,0.52,3.57c1.28-0.83,3.17-1.39,3.71-2.56
		c1-2.21,1.08-4.82,1.85-7.17c0.25-0.77,1.37-1.6,2.2-1.74c1.62-0.27,3.33-0.21,4.97-0.01c0.81,0.1,1.96,0.68,2.18,1.31
		c0.21,0.61-0.4,1.88-1.02,2.25c-0.43,0.26-1.48-0.5-2.25-0.83c-0.25-0.11-0.46-0.32-1.16-0.81
		C315.15,429.9,315.57,434.38,314.02,438.51z M297.88,433.33c0.69,1.11,1.27,2.04,1.85,2.97c0.84-0.83,2.04-1.51,2.44-2.51
		c0.69-1.73,0.98-3.65,1.24-5.52c0.1-0.7-0.34-1.47-0.54-2.21c-0.74,0.28-1.88,0.35-2.16,0.87
		C299.65,428.89,298.87,431,297.88,433.33z"/>
	<path class="st22" d="M202.38,435.58c-0.17-0.14-0.33-0.28-0.5-0.42c0.96-2.62,2.18-5.18,2.8-7.87c0.59-2.57,1.58-3.75,4.7-2.58
		c-0.43,2.23-0.87,4.6-1.35,6.96c-0.94,4.54-0.74,4.74,3.62,3.47c0.07,0.11,0.15,0.22,0.12,0.17c0.04,0.04-0.05-0.05-0.14-0.15
		c0.79-2.81,1.55-5.62,2.37-8.41c0.23-0.79,0.65-2.2,0.97-2.2c3.03,0.03,6.1,0.07,9.04,0.67c0.67,0.14,1.18,2.4,1.26,3.72
		c0.07,1.28-0.52,2.6-0.79,3.91c-0.59,2.83-0.32,3.11,2.62,2.81c0.06,0.07,0.12,0.15,0.18,0.23c-1.53,0.9-2.98,2.35-4.6,2.56
		c-1.94,0.25-3.07-1.37-2.75-3.44c0.31-2.07,0.94-4.09,1.16-6.16c0.08-0.72-0.66-1.52-1.02-2.28c-0.72,0.54-1.89,0.95-2.09,1.65
		c-0.76,2.55-1.2,5.19-1.76,7.79c-0.28,1.26-0.24,2.96-2.21,2.56c-1.06-0.22-1.99-1-3.36-1.73
		C205.7,439.86,205.16,439.23,202.38,435.58z"/>
	<path class="st22" d="M260.44,425.36c1.09-0.55,2.35-0.9,3.23-1.68c1.97-1.77,3.62-3.92,5.66-5.59c1.47-1.21,3.38-1.81,5.03-0.62
		c-0.35,3.82-0.47,7.47-1.09,11.04c-0.42,2.42-1.91,4.66-2.27,7.08c-0.47,3.07-1.95,3.53-4.74,2.68c0.56-2.78,1.11-5.55,1.67-8.31
		c-4.13-0.75-5.04-0.32-5.97,3.37c-0.69,2.73-1.08,5.54-1.61,8.34c-4.01-0.37-4.11-1.35-0.74-11.42c-1.46-0.24-3-0.26-4.32-0.81
		c-0.77-0.31-1.56-1.42-1.65-2.25c-0.06-0.56,1.03-1.69,1.71-1.79c1.68-0.24,3.43-0.04,5.16-0.01c-1.22,0.2-2.47,0.28-3.63,0.66
		c-0.42,0.14-0.6,0.99-0.89,1.52c0.91,0.41,1.82,1.14,2.74,1.15c0.86,0.02,1.9-0.56,2.51-1.2
		C261.46,427.27,260.73,426.11,260.44,425.36z M270.18,419.54c-0.26-0.18-0.52-0.35-0.78-0.53c-1.36,1.85-2.83,3.63-4.04,5.58
		c-0.41,0.65-0.43,1.8-0.15,2.54c0.18,0.49,1.46,1.11,1.8,0.91c0.8-0.47,1.64-1.31,1.89-2.16
		C269.5,423.82,269.77,421.66,270.18,419.54z"/>
	<path class="st22" d="M227.09,435.66c0.41-1.24,0.98-2.45,1.2-3.72c0.71-4.11,3.09-7.4,5.92-7.6c2.42-0.17,4.86-0.03,7.75-0.03
		c-1.38,6.27-2.5,12.32-4.14,18.22c-0.38,1.37-2.39,2.81-3.91,3.18c-1.07,0.26-3.17-0.91-3.74-2c-0.83-1.6-0.1-3.36,2.04-3.96
		c0.78-0.22,1.54-0.54,2.23-1.28c-0.46,0.03-0.95-0.02-1.37,0.12c-2.8,0.93-4.2-1.08-5.79-2.7
		C227.22,435.81,227.16,435.73,227.09,435.66z M231.23,433.71c0.58,0.85,1.03,2.28,1.82,2.51c1.74,0.5,2.47-0.81,2.74-2.45
		c0.26-1.6,0.89-3.15,1-4.75c0.06-0.97-0.55-1.98-0.87-2.98c-0.95,0.6-2.31,0.99-2.76,1.85
		C232.28,429.54,231.93,431.45,231.23,433.71z"/>
	<path class="st22" d="M288.12,424.67c-0.69,3.68-1.36,7.27-2.03,10.85c0.32,0.21,0.63,0.42,0.95,0.62
		c0.93-0.72,2.23-1.24,2.72-2.19c0.95-1.84,1.51-3.89,2.08-5.89c0.12-0.42-0.43-1.02-0.65-1.54c-0.26-0.62-0.67-1.26-0.66-1.89
		c0-0.3,0.94-0.92,1.25-0.81c0.64,0.21,1.5,0.75,1.62,1.29c0.24,1.07,0.28,2.31-0.04,3.35c-0.78,2.52-1.47,5.17-2.83,7.37
		c-2.09,3.39-5.69,3.65-8.76,1.11c-0.18,0.03-0.4,0.02-0.54,0.11c-1.79,1.2-3.67,2.42-5.77,0.91c-2.09-1.49-1.08-3.6-0.69-5.52
		c0.34-1.68,0.71-3.35,1.08-5.03c0.73-3.35,0.74-3.35,4.65-2.88c-0.59,2.95-1.24,5.87-1.71,8.83c-0.12,0.76,0.36,1.61,0.57,2.41
		c0.88-0.52,2.29-0.86,2.56-1.61c0.77-2.13,1.24-4.41,1.52-6.67C283.77,424.75,284.9,423.53,288.12,424.67z"/>
	<path class="st20" d="M276.61,236.38c-0.07-0.33-0.13-0.67-0.2-1c2.76-1.66,2.47-4.68,2.88-7.19c0.46-2.79,1.95-3.08,4.17-2.82
		c0.98,0.12,2.01-0.02,2.97,0.19c1.16,0.26,2.25,0.78,3.38,1.18c-0.36,0.91-0.65,2.52-1.1,2.57c-0.99,0.1-2.06-0.59-3.88-1.24
		c-0.17,0.27-1,1.12-1.28,2.13c-0.67,2.38-1.05,4.84-1.58,7.26c-0.83,3.76-0.84,3.76-5.1,3.11c0.27-1.61,0.53-3.22,0.84-5.11
		C277.17,235.91,276.89,236.14,276.61,236.38z"/>
	<path class="st23" d="M121.94,432.3c-1.13-0.1-2.26-0.28-3.39-0.28c-22.47-0.02-44.94-0.01-67.41-0.01c-1.07,0-2.14,0-3.21,0
		c-0.01-0.26-0.01-0.52-0.02-0.78c0.77-0.07,1.53-0.19,2.3-0.19c23.23-0.01,46.47-0.02,69.7,0.04c0.84,0,1.69,0.74,2.53,1.13
		C122.29,432.27,122.12,432.29,121.94,432.3z"/>
	<path class="st23" d="M432.73,234.99c-40.28,0-80.55,0-120.83,0c0-0.13,0-0.26,0-0.4c40.28,0,80.55,0,120.83,0
		C432.73,234.73,432.73,234.86,432.73,234.99z"/>
	<path class="st23" d="M48.56,234.55c39.54,0,79.09,0,118.63,0c0,0.13,0,0.26,0,0.4c-39.54,0-79.09,0-118.63,0
		C48.56,234.81,48.56,234.68,48.56,234.55z"/>
	<path class="st23" d="M432.75,431.71c-24.79,0-49.59,0-74.38,0c0-0.13,0-0.27,0-0.4c24.79,0,49.59,0,74.38,0
		C432.75,431.45,432.75,431.58,432.75,431.71z"/>
	<path class="st16" d="M226.07,224.59c-1.24-1.46-2.66-2.45-2.53-3.14c0.19-1.02,1.5-1.83,2.33-2.73c0.8,0.81,2.13,1.54,2.26,2.44
		C228.25,221.99,227.08,223.01,226.07,224.59z"/>
	<path class="st22" d="M211.45,420.3c-1.39,1.06-2.28,2.23-2.93,2.11c-0.94-0.17-1.71-1.27-2.55-1.98c0.78-0.78,1.46-1.98,2.38-2.2
		C209,418.08,209.96,419.25,211.45,420.3z"/>
	<path class="st24" d="M121.94,432.3c0.18-0.01,0.35-0.03,0.51-0.09c0,0.31,0,0.62,0,0.93c-0.11,0.01-0.21,0.03-0.32,0.04
		C122.08,432.89,122.01,432.59,121.94,432.3z"/>
</g>
</svg>
