<svg xmlns="http://www.w3.org/2000/svg" viewBox="0 0 221.09 103.28"><defs><style>.cls-1{fill:#fff;}</style></defs><g id="Layer_2" data-name="Layer 2"><g id="Layer_1-2" data-name="Layer 1"><path class="cls-1" d="M4.36,103H0v-.39H1.18V86.14H0v-.39H6.16q4.44,0,4.44,3.48v2a3.4,3.4,0,0,1-.83,2.52,3.88,3.88,0,0,1-2.27.87,3.88,3.88,0,0,1,2.22,1.43,3.75,3.75,0,0,1,.66,2.23v3.26c0,.81.23,1.21.7,1.21s.72-.38.72-1.15v-.17h.35v.17a1.82,1.82,0,0,1-.4,1.33,1.68,1.68,0,0,1-1.21.35A1.83,1.83,0,0,1,9,102.66a3.55,3.55,0,0,1-.44-2V99.42a5,5,0,0,0-1.15-3.61,4,4,0,0,0-3-1.1H3.22v7.87H4.35V103ZM3.23,86.13v8.18H5.32a3.27,3.27,0,0,0,2.59-.84,5.1,5.1,0,0,0,.72-3.17v-.16q0-4-3.24-4H3.23Z"/><path class="cls-1" d="M26.35,85.56a4.84,4.84,0,0,1,4,1.73,6.48,6.48,0,0,1,1.23,4.16v6.12a6.06,6.06,0,0,1-1.23,4,5,5,0,0,1-4,1.59,5,5,0,0,1-4-1.59,6.13,6.13,0,0,1-1.22-4V91.45a6.52,6.52,0,0,1,1.22-4.16A4.85,4.85,0,0,1,26.35,85.56Zm3,4.21a5.08,5.08,0,0,0-.62-2.69,2.63,2.63,0,0,0-2.38-1.2A2.61,2.61,0,0,0,24,87.08a5,5,0,0,0-.62,2.69v9.49c0,2.42,1,3.62,3,3.62s3-1.21,3-3.62Z"/><path class="cls-1" d="M53.3,85.75v.39h-2L47.67,95l-.06.15v7.48h1.14V103H44.4v-.39h1.17V95.67l-3.83-9.53h-1.2v-.39h4.52v.39H43.92l3.53,8.2,3.41-8.2H48.94v-.39Z"/><path class="cls-1" d="M69.7,85.75l4.46,16.83h1.18V103H71v-.39h1.14l-1.35-5.14H65.28L64,102.58h1.43V103H62.24v-.39h1.31l4.37-16.83ZM65.38,97.06h5.27L68,87Z"/><path class="cls-1" d="M91.88,102.59a3.78,3.78,0,0,0,1.6-1.38,5.74,5.74,0,0,0,.79-1.77,7.17,7.17,0,0,0,.3-2.17h.67L94.69,103H84.27v-.39h1.18V86.15H84.27v-.39h4.36v.39H87.5v16.44Z"/><path class="cls-1" d="M120.18,98.74c0,2-.55,3.2-1.65,3.76a9.74,9.74,0,0,1-3.8.48h-5.42v-.39h1.18V86.15h-1.18v-.39H115a7.14,7.14,0,0,1,3.39.54q1.23.77,1.23,3.24v.78a3.24,3.24,0,0,1-2.88,3.44,4,4,0,0,1,2.42,1.07,4.36,4.36,0,0,1,1,3.14v.77Zm-7.64-5.14H115a2.32,2.32,0,0,0,1.27-.44,2.66,2.66,0,0,0,.88-1,4.27,4.27,0,0,0,.39-1.92v-.65a4.92,4.92,0,0,0-.39-2.08,2.3,2.3,0,0,0-.88-1,2.57,2.57,0,0,0-1.27-.37h-2.47Zm0,9h2.2a3.1,3.1,0,0,0,1.67-.44,3.63,3.63,0,0,0,1.69-3.47V98c0-1.79-.56-3-1.69-3.6a4,4,0,0,0-1.67-.39h-2.2Z"/><path class="cls-1" d="M136.72,102.59a3.78,3.78,0,0,0,1.6-1.38,5.74,5.74,0,0,0,.79-1.77,7.17,7.17,0,0,0,.3-2.17h.67l-.54,5.71H129.1v-.39h1.18V86.15H129.1v-.39h10.42l.55,5.71h-.67a7.61,7.61,0,0,0-.3-2.18,6,6,0,0,0-.79-1.77,3.9,3.9,0,0,0-1.6-1.37h-4.38v8h3.2V91.51h1v5.7h-1V94.55h-3.2v8Z"/><path class="cls-1" d="M156.49,85.75,161,102.58h1.18V103h-4.36v-.39h1.13l-1.35-5.14h-5.49l-1.33,5.14h1.43V103H149v-.39h1.31l4.37-16.83Zm-4.32,11.31h5.27L154.78,87Z"/><path class="cls-1" d="M176.44,103.2a4.77,4.77,0,0,1-4-2,7.08,7.08,0,0,1-1.4-4.43V92a7.15,7.15,0,0,1,1.4-4.44,4.75,4.75,0,0,1,4-2,6.41,6.41,0,0,1,1.61.21h2.52l.54,5.71h-.67a9.69,9.69,0,0,0-.7-2.79,5.56,5.56,0,0,0-1.21-1.93,2.85,2.85,0,0,0-4.54.59,5.37,5.37,0,0,0-.84,3v8.13a5.37,5.37,0,0,0,.84,3,2.83,2.83,0,0,0,4.54.6,5.46,5.46,0,0,0,1.21-1.93,10.18,10.18,0,0,0,.7-2.8h.67l-.54,5.71h-2.52A6.89,6.89,0,0,1,176.44,103.2Z"/><path class="cls-1" d="M195.29,85.56a4.84,4.84,0,0,1,4,1.73,6.48,6.48,0,0,1,1.23,4.16v6.12a6.06,6.06,0,0,1-1.23,4,5.9,5.9,0,0,1-8.06,0,6.13,6.13,0,0,1-1.22-4V91.45a6.52,6.52,0,0,1,1.22-4.16A4.85,4.85,0,0,1,195.29,85.56Zm3,4.21a5.08,5.08,0,0,0-.62-2.69,3,3,0,0,0-4.75,0,5.05,5.05,0,0,0-.62,2.69v9.49c0,2.42,1,3.62,3,3.62s3-1.21,3-3.62Z"/><path class="cls-1" d="M221.09,85.75v.39h-1.37V103h-.88l-7.61-15.69v15.29h1.38V103h-3.14v-.39h1.37V86.13h-1.37v-.39h3.41l6.45,12.84V86.13H218v-.39h3.13Z"/><path class="cls-1" d="M111.86,74.58a19.25,19.25,0,0,1-14.31-6.17,20.57,20.57,0,0,1-6-14.86v21H76.06a13.51,13.51,0,0,0,4.48-2.42,7.58,7.58,0,0,0,2.71-4V6.33a7.54,7.54,0,0,0-2.71-4A12.21,12.21,0,0,0,76.06,0H98.54Q110.3,0,116.6,3.49t6.3,11.11a12.67,12.67,0,0,1-1.82,6.87,21.26,21.26,0,0,1-4.68,5.21A53.71,53.71,0,0,1,110.1,31a26.49,26.49,0,0,1,10.51,3.11,23.36,23.36,0,0,1,8.33,7.57,20.56,20.56,0,0,1,3.33,11.86,20.61,20.61,0,0,1-6,14.86A19.45,19.45,0,0,1,111.86,74.58ZM91.56,53.44a20.88,20.88,0,0,1,1.77-8.86,28.32,28.32,0,0,1,4.53-6.92q2.76-3.1,5.67-5.85t5.36-5.47a26.4,26.4,0,0,0,4-5.9,16.16,16.16,0,0,0,1.56-7.24c0-3.22-.71-5.7-2.13-7.46a11,11,0,0,0-5.72-3.65,29.54,29.54,0,0,0-8.07-1h-7V53.44ZM109,72.22a12.93,12.93,0,0,0,8.28-2.52,15.12,15.12,0,0,0,4.74-6.76,27,27,0,0,0,1.56-9.39q0-9.87-4.32-15.72T108.42,32a40.66,40.66,0,0,0-12.07,9.66A19.71,19.71,0,0,0,92.6,53.55a19,19,0,0,0,2.45,9.71,18.31,18.31,0,0,0,6.25,6.6A14.5,14.5,0,0,0,109,72.22Z"/></g></g></svg>