<svg xmlns="http://www.w3.org/2000/svg" viewBox="0 0 163.21 103.48"><defs><style>.cls-1{fill:#fff;}</style></defs><g id="Layer_2" data-name="Layer 2"><g id="Layer_1-2" data-name="Layer 1"><path class="cls-1" d="M4.13,103.18v-.39H5.31V86.35H3.37A4.54,4.54,0,0,0,1,89.49a7.64,7.64,0,0,0-.31,2.18H0L.55,86H12.11l.55,5.71H12a7.64,7.64,0,0,0-.31-2.18,4.56,4.56,0,0,0-2.39-3.14H7.35v16.44H8.52v.39Z"/><path class="cls-1" d="M24.86,94.67v8.12h1.22v.39H21.6v-.39h1.22V86.35H21.6V86h4.48v.39H24.86v8h6v-8H29.65V86h4.48v.39H32.9v16.44h1.22v.39H29.64v-.39h1.22V94.67Z"/><path class="cls-1" d="M50.66,102.79a3.78,3.78,0,0,0,1.6-1.38,5.74,5.74,0,0,0,.79-1.77,7.53,7.53,0,0,0,.31-2.17H54l-.54,5.71H43.05v-.39h1.18V86.35H43.05V86H53.47L54,91.67h-.67A7.3,7.3,0,0,0,53,89.49a6,6,0,0,0-.79-1.77,3.9,3.9,0,0,0-1.6-1.37H46.27v8h3.2V91.71h1v5.7h-1V94.75h-3.2v8Z"/><path class="cls-1" d="M75.39,95.59h3.78V96h-.84v6.17a4.07,4.07,0,0,1-2,1.07,6,6,0,0,1-1,.17l-.37,0h-.26a6.85,6.85,0,0,1-4.58-1.5,6.13,6.13,0,0,1-2-4.93V92.22a7.15,7.15,0,0,1,1.4-4.44,4.75,4.75,0,0,1,4-2,6.41,6.41,0,0,1,1.61.21h2.51l.54,5.71h-.67a9.84,9.84,0,0,0-.7-2.8q-1.12-2.79-3.3-2.79A2.86,2.86,0,0,0,71,87.57a5.37,5.37,0,0,0-.84,3v8.13a4.17,4.17,0,0,0,1.45,3.39,4.61,4.61,0,0,0,3,1,1.53,1.53,0,0,0,1.42-.66,1.3,1.3,0,0,0,.2-.66V96h-.9v-.4Z"/><path class="cls-1" d="M92.22,103.17H87.86v-.39H89V86.34H87.86V86H94q4.44,0,4.44,3.48v2A3.4,3.4,0,0,1,97.64,94a3.88,3.88,0,0,1-2.27.87,3.88,3.88,0,0,1,2.22,1.43,3.75,3.75,0,0,1,.66,2.23v3.26c0,.81.23,1.21.7,1.21s.72-.38.72-1.15v-.17H100v.17a1.82,1.82,0,0,1-.4,1.33,1.68,1.68,0,0,1-1.21.35,1.83,1.83,0,0,1-1.57-.62,3.55,3.55,0,0,1-.44-2V99.62A5,5,0,0,0,95.25,96a4,4,0,0,0-3-1.1H91.08v7.87h1.14ZM91.08,86.34v8.18h2.09a3.27,3.27,0,0,0,2.59-.84,5.1,5.1,0,0,0,.72-3.17v-.16q0-4-3.23-4H91.08Z"/><path class="cls-1" d="M116.42,86l4.46,16.83h1.18v.39H117.7v-.39h1.14l-1.35-5.14H112l-1.33,5.14h1.43v.39H109v-.39h1.31L114.64,86Zm-4.32,11.3h5.27l-2.66-10.07Z"/><path class="cls-1" d="M142.61,86v.39h-1.37v16.83h-.88l-7.61-15.69v15.29h1.38v.39H131v-.39h1.37V86.34H131V86h3.41l6.45,12.84V86.34h-1.37V86h3.13Z"/><path class="cls-1" d="M163.21,96.77a6.28,6.28,0,0,1-2,4.85,5.92,5.92,0,0,1-4.11,1.56h-5.6v-.39h1.18V86.35h-1.18V86h5.6a5.53,5.53,0,0,1,4,1.6,6.08,6.08,0,0,1,2.06,4.89Zm-6.25,6a3.21,3.21,0,0,0,2.09-.66q2.08-1.45,2.09-5.43V92.51q0-4.1-2.09-5.54a4,4,0,0,0-2.09-.62h-2.2v16.44Z"/><path class="cls-1" d="M81.47,74.46q-16.18,0-25.18-9.65t-9-27.58q0-16.78,9.51-27T82.39,0a65.21,65.21,0,0,1,22.75,4.07v14.5A56.93,56.93,0,0,0,98.57,10a28.79,28.79,0,0,0-8.19-6.2,21.89,21.89,0,0,0-10-2.29A14.08,14.08,0,0,0,70.11,5.86a14.1,14.1,0,0,0-4.4,10.32q0,8.24,7.33,13.3t22.3,5.06h20.83q-5.76,1.88-7,6.26l-.1,32.64h-1l-7-14.81A21.84,21.84,0,0,1,95,70.05C91.91,73,87.41,74.46,81.47,74.46Zm.21-.94q7,0,11.33-3.34a18.25,18.25,0,0,0,6.22-8.86,37.76,37.76,0,0,0,1.87-12.2V35.56a126.58,126.58,0,0,1-17.29-.94,26.54,26.54,0,0,1-11.63-4.48q-7.49-5.52-7.48-14T72.28,2.82A22.8,22.8,0,0,0,60.19,13.09q-4.5,7.56-4.5,19.34A70.69,70.69,0,0,0,58.62,53.7Q61.55,63,67.37,68.25A20.52,20.52,0,0,0,81.68,73.52Z"/></g></g></svg>