<?xml version="1.0" encoding="utf-8"?>
<!-- Generator: Adobe Illustrator 26.2.0, SVG Export Plug-In . SVG Version: 6.00 Build 0)  -->
<svg version="1.1" id="Layer_1" xmlns="http://www.w3.org/2000/svg" xmlns:xlink="http://www.w3.org/1999/xlink" x="0px" y="0px"
	 viewBox="0 0 481.57 471.16" style="enable-background:new 0 0 481.57 471.16;" xml:space="preserve">
<style type="text/css">
	.st0{fill:#EC2429;}
	.st1{fill:#FFFFFF;}
	.st2{fill:#ED2127;}
	.st3{fill:#005CA9;}
	.st4{fill:#A7A8AB;}
	.st5{fill:#EF4236;}
	.st6{fill:#B5985B;}
	.st7{fill:#FEFDFD;}
	.st8{fill:#FEFEFE;}
	.st9{fill:#FDFDFE;}
	.st10{fill:#0058A9;}
	.st11{fill:#FDFDFD;}
	.st12{fill:#FBFBFD;}
	.st13{fill:#FCFCFD;}
	.st14{fill:#FCFDFD;}
	.st15{fill:#FDFBFB;}
	.st16{fill:#FDF7F4;}
	.st17{fill:#FAFAFD;}
	.st18{fill:#FBFBFC;}
	.st19{fill:#F8F9FC;}
	.st20{fill:#B1965E;}
	.st21{fill:#0054A3;}
	.st22{fill:#DFE3F2;}
	.st23{fill:#0053A3;}
	.st24{fill:#717685;}
	.st25{fill:#5B749E;}
	.st26{fill:#1E67B0;}
	.st27{fill:#898178;}
	.st28{fill:#858DA6;}
	.st29{fill:#BEC8E4;}
	.st30{fill:#8A8178;}
	.st31{fill:#C6BBA9;}
	.st32{fill:#767983;}
	.st33{fill:#A0A2A5;}
	.st34{fill:#9FA2A4;}
	.st35{fill:#A2A4A6;}
	.st36{fill:#2561A5;}
	.st37{fill:#C9804C;}
	.st38{fill:#E36243;}
	.st39{fill:#EE2D2D;}
	.st40{fill:#E8CAB5;}
	.st41{fill:#EAE1D1;}
	.st42{fill:#DACAAD;}
	.st43{fill:#ED272B;}
	.st44{fill:#F59177;}
	.st45{fill:#005FAB;}
	.st46{fill:#005FAA;}
	.st47{fill:#0962AC;}
	.st48{fill:#005DA9;}
	.st49{fill:#0061AC;}
	.st50{fill:#A7AAAC;}
	.st51{fill:#A8AAAC;}
</style>
<g>
	<polygon class="st0" points="-856.16,65.22 -881.59,101.43 -884.41,133 -893.82,167.89 -909.33,181.74 -909.33,212.75 
		-897.7,244.87 -877.21,265.92 -856.16,271.46 -846.19,281.43 -827.36,293.06 -812.41,312.11 -785.83,317.98 -762.57,317.98 
		-735.98,317.98 -721.59,306.88 -709.4,290.29 -696.59,285.3 -688.91,272.01 -663.87,265.92 -649.59,244.87 -637.6,227.49 
		-633.53,203.89 -633.53,180.63 -646.27,165.12 -656.79,150.72 -661.22,125.25 -663.87,105.31 -681.22,83.17 -691.41,72.77 
		-707.19,65.22 -727.68,58.24 -768.86,65.22 -793.58,61.01 -821.83,58.24 -846.19,69.31 	"/>
	<path class="st0" d="M-881.64,38.02c0,0-79.75-27.41-107.16,70.61c-24.92,72.27-5.81,95.53-5.81,95.53s9.14,22.43,49.01,40.71
		c49.01-17.45,49.01-17.45,49.01-17.45l1.66-44.03l19.11-35.72V107.8l26.58-24.92L-881.64,38.02z"/>
	<path class="st0" d="M-663.87,38.45c0,0,1.97-84.78-100.32-81.18c-76.85-1.86-93.33,23.54-93.33,23.54s-18.71,15.59-24.07,59.37
		c31.65,41.65,31.65,41.65,31.65,41.65l42.7-11.82l40.05,7.43l38.21-12.15l31.98,17.88L-663.87,38.45z"/>
	<path class="st0" d="M-592.46,240.97c0,0,80.39-27,42.19-121.96c-24.41-72.9-53.9-79.74-53.9-79.74s-21.03-12.28-64.02-2.43
		c-28.39,43.94-28.39,43.94-28.39,43.94l25.65,36.12l6.65,40.19l24.43,31.79l-5.93,36.16L-592.46,240.97z"/>
	<path class="st0" d="M-768.69,368.95c0,0,49.08,69.15,128.95,5.13c62.73-44.44,60.76-74.65,60.76-74.65s5.68-23.68-16.18-61.99
		c-50.27-14.48-50.27-14.48-50.27-14.48l-27.17,35l-36.55,17.99l-23.37,32.58l-36.33,4.78L-768.69,368.95z"/>
	<path class="st0" d="M-946.15,243.59c0,0-49.88,68.58,36.28,123.85c62.13,45.28,90.13,33.77,90.13,33.77s24.26-2.17,53.59-35.11
		c-2.32-52.27-2.32-52.27-2.32-52.27l-41.83-14.58l-28.71-28.9l-38.33-11.76l-16.12-32.9L-946.15,243.59z"/>
</g>
<g>
	<path class="st1" d="M-867.52,72.91c0,0-18.28-38.21-47.35-19.94c-10.24,7.31-15.78,24.92-15.78,24.92s-0.83,23.26-9.97,51.5
		c-9.14,28.24-22.43,59.81-22.43,59.81s-4.15,20.77,9.14,30.74c23.47,19.53,42.37,0,42.37,0s-9.75-9.97-4.04-35.72
		c5.29-18.69,19.83-29.08,19.83-29.08l-7.48-11.63l13.29-7.06C-889.95,136.46-905.73,105.73-867.52,72.91z"/>
	<path class="st1" d="M-693,62.62c0,0,31.05-29.16,4.68-51.45c-10.12-7.58-28.69-7.53-28.69-7.53s-22.54,6.29-52.4,6.14
		c-29.85-0.15-64.15-3.27-64.15-3.27s-21.17,2.35-26.67,18.12c-11.56,28.44,12.91,40.6,12.91,40.6s6.58-12.38,33-14.76
		c19.52-0.62,33.9,10.14,33.9,10.14l8.87-10.71l10.82,10.59C-760.74,60.48-736.09,35.99-693,62.62z"/>
	<path class="st1" d="M-625.1,221.8c0,0,37.99,19.27,49.98-13.12c3.68-12.1-2.69-29.54-2.69-29.54s-13.59-19.05-23.61-47.18
		c-10.02-28.12-18.76-61.43-18.76-61.43s-9.41-19.11-26.12-18.91c-30.67-1.19-33.78,25.95-33.78,25.95s13.89,1.97,25.11,26.01
		c7.23,18.14,2,35.33,2,35.33l13.09,4.69l-6.27,13.77C-646.15,157.39-614.73,172.22-625.1,221.8z"/>
	<path class="st1" d="M-759.77,332.16c0,0-7.47,41.94,27,44.05c12.65,0.03,27.5-11.11,27.5-11.11s14.31-18.52,38.34-36.24
		c24.02-17.72,53.38-35.72,53.38-35.72s15.57-14.54,10.55-30.47c-7.72-29.71-34.61-24.84-34.61-24.84s2.12,13.86-17.64,31.56
		c-15.28,12.17-33.24,12.13-33.24,12.13l-0.71,13.88l-15-2.02C-704.19,293.39-709.32,327.75-759.77,332.16z"/>
	<path class="st1" d="M-908.45,240.3c0,0-42.13,6.3-33.13,39.64c4.01,12,19.3,22.52,19.3,22.52s22.11,7.66,46.58,24.78
		c24.45,17.11,50.88,39.2,50.88,39.2s18.74,10.12,32.24,0.28c25.69-16.8,12.5-40.73,12.5-40.73s-12.46,6.43-35.53-6.65
		c-16.41-10.6-22.1-27.64-22.1-27.64l-13.39,3.75l-2.87-14.86C-853.97,280.61-888.17,286.72-908.45,240.3z"/>
	<path class="st1" d="M-774.97,140.98c0,0-1.72-59.81-28.17-64.17c-13.82-1.73-21.32,13.24-21.32,13.24s-9.57,15.09-20.7,16.95
		c-11.13,1.86-11.75,3.14-18.3,10.16c-8.81,11.3,1.31,23.75,1.31,23.75s6.1,9.95,18.44,15.1c12.35,5.14,32.23,11.12,32.23,11.12
		L-774.97,140.98z"/>
	<path class="st1" d="M-729.48,169.51c0,0,57.09-17.89,54.12-44.53c-2.08-13.77-18.53-16.92-18.53-16.92s-17.12-5.11-21.93-15.32
		c-4.81-10.21-6.21-10.46-14.75-14.85c-13.27-5.41-22.5,7.71-22.5,7.71s-7.92,8.57-9.52,21.85c-1.6,13.28-1.95,34.04-1.95,34.04
		L-729.48,169.51z"/>
	<path class="st1" d="M-739.32,222.28c0,0,35.81,47.93,59.95,36.29c12.31-6.53,9.82-23.09,9.82-23.09s-0.85-17.85,7.18-25.77
		c8.03-7.92,7.8-9.33,9.12-18.84c0.7-14.31-14.73-18.68-14.73-18.68s-10.71-4.64-23.77-1.74c-13.06,2.89-32.76,9.44-32.76,9.44
		L-739.32,222.28z"/>
	<path class="st1" d="M-794.48,224.63c0,0-34.7,48.74-16.23,68.18c9.98,9.72,24.99,2.3,24.99,2.3s16.73-6.27,26.73-1.04
		c10,5.22,11.27,4.58,20.72,2.93c13.84-3.71,13.28-19.74,13.28-19.74s1.14-11.61-5.61-23.16c-6.75-11.55-19-28.31-19-28.31
		L-794.48,224.63z"/>
	<path class="st1" d="M-816.66,174.96c0,0-57.75-15.66-69.58,8.39c-5.66,12.73,6.5,24.24,6.5,24.24s11.68,13.52,10.23,24.72
		c-1.44,11.19-0.39,12.16,4.43,20.46c8.27,11.7,23.11,5.62,23.11,5.62s11.29-2.95,19.79-13.28c8.5-10.33,19.97-27.63,19.97-27.63
		L-816.66,174.96z"/>
</g>
<ellipse transform="matrix(0.9958 -0.0917 0.0917 0.9958 -20.5005 -69.9014)" class="st2" cx="-771.07" cy="188.18" rx="63.48" ry="63.48"/>
<g>
	<path class="st3" d="M28.68,287.29c-1.97-7.94-3.19-16.01-4.07-24.13c-1.25-11.38-1.53-22.8-0.92-34.25
		c1.25-23.72,6.1-46.66,15.1-68.63c20.44-49.94,54.69-87.39,102.55-112.32c23.18-12.08,47.87-19.65,73.87-22.19
		c67.45-6.59,126.06,13.29,174.97,60.25c32.09,30.81,52.16,68.52,61.04,112.11c4.26,20.89,5.07,41.98,3.07,63.19
		c-0.83,8.75-2.21,17.4-4.22,25.96c-0.26,0.1-0.52,0.14-0.8,0.11c-1.43-0.05-2.86-0.03-4.29-0.03c-137.34,0-274.68,0-412.02,0
		c-1.16,0-2.32-0.01-3.47,0.03C29.2,287.44,28.93,287.4,28.68,287.29z"/>
	<path class="st4" d="M28.68,287.29c0.11-0.03,0.23-0.07,0.34-0.11c0.71-0.35,1.48-0.17,2.21-0.17c138.76-0.01,277.52-0.01,416.27,0
		c0.74,0,1.5-0.16,2.22,0.17c0.11,0.03,0.22,0.07,0.34,0.11c-3.13,14.55-7.89,28.55-14.06,42.08c-9.93,21.81-23.1,41.45-39.6,58.85
		c-29.85,31.47-65.87,52.27-108.08,62.31c-11.73,2.79-23.64,4.44-35.69,5.14c-33.79,1.97-66.32-3.41-97.49-16.63
		c-20.01-8.48-38.28-19.83-54.91-33.83c-15.63-13.15-29.09-28.25-40.45-45.19c-10.13-15.1-18.24-31.25-24.22-48.44
		C32.79,303.62,30.35,295.56,28.68,287.29z"/>
	<path class="st1" d="M184.76,171.61c2.28,9.24,4.54,18.48,6.83,27.72c1.11,4.47,2.25,8.93,3.73,13.39
		c1.93-6.62,3.86-13.25,5.79-19.87c2.68-9.2,5.4-18.39,8.01-27.62c0.35-1.24,0.85-1.58,2.09-1.58c4.62-0.01,4.67-0.07,6.12,4.23
		c4.97,14.68,9.92,29.37,14.87,44.05c0.13,0.37,0.1,0.83,0.77,1.15c0.98-4.93,1.95-9.8,2.91-14.67c2.18-11.01,4.38-22.01,6.48-33.04
		c0.26-1.37,0.76-1.9,2.1-1.71c0.4,0.06,0.82,0.01,1.22,0.01c3.58,0,3.59,0,2.87,3.43c-3.99,18.96-8.02,37.91-11.93,56.89
		c-0.37,1.81-1.08,2.37-2.8,2.15c-1.28-0.16-2.6-0.31-3.87-0.16c-2.09,0.25-2.9-0.61-3.53-2.57c-4.83-15.08-9.78-30.12-14.71-45.17
		c-0.06-0.17-0.2-0.32-0.5-0.77c-1.34,4.48-2.62,8.71-3.87,12.95c-3.3,11.15-6.63,22.28-9.85,33.45c-0.47,1.63-1.18,2.25-2.82,2.01
		c-0.8-0.12-1.63-0.02-2.45-0.02c-4.35,0-4.36,0-5.3-4.14c-3.66-16.04-7.32-32.08-10.97-48.12c-1.11-4.87-4.52-7.62-9.62-7.71
		c-1.12-0.6-0.86-1.42-0.34-2.27c1.7-0.88,3.54-0.25,5.3-0.45c2.52,0.09,5.06-0.35,7.54,0.41c3.8-0.9,4.45,1.81,5.14,4.47
		C184.56,169.17,185.26,170.25,184.76,171.61z"/>
	<path class="st5" d="M105.39,213.11c-1.56,2.06-3.15,4.09-4.65,6.18c-0.53,0.74-1.08,1.06-2.02,0.99c-5.63-0.37-11.27-0.7-16.91-1
		c-1.03-0.05-1.44-0.38-1.32-1.48c0.54-5.21,1.04-10.42,1.5-15.63c0.08-0.94,0.64-1.44,1.25-1.98c2.8-2.47,5.6-4.95,8.39-7.43
		c0.68-1.59,2.21-2.39,3.41-3.43c7.86-6.79,15.69-13.63,23.53-20.44c3.59-3.12,7.27-6.13,10.76-9.36c0.78-0.72,1.57-1.53,2.73-1.68
		c0.32,0.06,0.53,0.26,0.64,0.55c0.2,1.22-0.55,2.1-1.21,2.93c-6.99,8.7-14.01,17.38-21.27,25.86c-0.64,0.68-1.36,1.27-1.78,1.98
		c0.48-0.66,1.14-1.32,1.81-1.96c5.18-5.09,10.58-9.94,15.89-14.89c2.68-2.5,5.41-4.95,8.04-7.49c1.83-1.77,3.86-3.22,6.44-3.7
		c0.99-0.18,1.94-0.3,2.28,0.99c-0.25,1.33-1.22,2.26-1.98,3.28c-11.3,15.23-22.42,30.6-33.67,45.87
		C106.73,211.98,106.22,212.7,105.39,213.11z"/>
	<path class="st6" d="M142.79,161.94c-1.83-1.13-3.42-0.1-4.92,0.71c-2.97,1.6-5.12,4.23-7.57,6.46
		c-6.68,6.08-13.26,12.27-19.89,18.42c-0.41,0.09-0.57-0.07-0.48-0.48c6.83-8.36,13.65-16.72,20.49-25.07
		c0.86-1.06,1.68-2.13,2.09-3.46c0.16-0.67,0.1-1.37,0.28-2.04c0.96-4.1-0.84-6.62-5.15-6.76c-3.78-0.13-7.58-0.35-11.35,0.24
		c-0.74,0.12-1.48,0.11-2.23,0.11c-1.25,0.18-2.43-0.77-3.7-0.21c-0.8,0.04-1.59,0.08-2.39,0.12c-0.46-0.03-1.13,0.54-1.23-0.45
		c1.51-0.32,3.03-0.64,4.54-0.96c0.96-0.64,2.08-0.88,3.14-1.27c2.43-0.62,4.84-1.32,7.36-1.43c-11.83,0.23-23.67,0.13-35.5,0.14
		c-0.82,0-1.64-0.02-2.29-0.65c-0.09-0.07-0.14-0.17-0.14-0.29c0.09-0.1,0.18-0.2,0.26-0.3c0.95-0.53,1.99-0.35,3-0.35
		c12.8-0.01,25.59-0.01,38.38-0.01c2.46-0.23,4.76-0.96,6.77-2.41c2.25-1.62,2.57-3.15,1.31-5.58c-0.37-0.71-0.91-1.35-1.03-2.18
		c-0.83-2.19-2.62-3.68-4.02-5.46c-1.12-1.43-2.33-2.77-3.51-4.15c-0.08-0.44,0.11-0.62,0.54-0.54c4.13,2.52,8.32,4.94,12.72,6.98
		c0.47,0.39,0.79,0.9,1.11,1.4c0.86,1.48,1.55,3.03,2.14,4.62c1.28,3.43,0.39,5.55-3.03,7c-1.86,0.79-3.82,1.34-5.95,2.02
		c2.19-0.17,4.14,0.25,6.09,0.5c3.66,0.46,4.84,2.81,3.21,6.07c-0.98,1.97-2.52,3.54-3.83,5.38c1.6-0.95,2.93-2.16,4.47-3.06
		c3.2-1.86,5.37-1.14,6.83,2.22c0.58,1.32,0.89,2.71,1.23,4.1c0.33,1.32,0.68,2.63,0.93,3.88c0.11-2.76,0.24-5.63,0.79-8.42
		c0.65-3.3,2.49-4.27,5.69-3.34c2.31,0.67,4.39,1.84,6.5,2.92c0.13,0,0.17,0.25,0.36,0.15c-0.1-0.05-0.2-0.11-0.3-0.19
		c-1.37-1.25-2.7-2.52-3.91-3.89c-3.21-3.64-2.46-6.95,1.98-8.84c1.83-0.78,3.61-1.68,5.31-2.21c-1.55,0.13-3.36,0.07-5.17,0.08
		c-1.1,0.01-2.17-0.17-3.21-0.49c-2.53-0.79-3.64-2.91-2.82-5.43c0.4-1.24,1.09-2.34,1.78-3.42c0.25-0.38,0.48-0.78,0.77-1.18
		c-0.3,0.15-0.38,0.47-0.62,0.64c-0.97,1.06-2.07,1.97-3.33,2.64c-2.37,1.28-4.27,0.54-5.11-2.02c-0.5-1.54-1-3.09-1.31-4.76
		c-0.47,1.95-0.71,3.9-1.24,5.79c-0.78,2.79-2.1,3.33-4.42,1.69c-1.32-0.93-2.92-1.48-3.92-2.84c-0.08-0.21-0.06-0.4,0.08-0.58
		c3.09-0.03,4.89-1.35,5.79-4.41c1.3-4.42,2.22-8.92,2.97-13.64c0.86,0.51,0.79,1.31,0.96,1.96c0.92,3.55,1.69,7.15,2.76,10.66
		c1.13,3.69,3.2,4.46,6.75,2.85c1.31-0.6,2.46-1.44,3.55-2.38c3.3-2.84,6.62-5.66,9.93-8.49c0.38-0.1,0.58,0,0.44,0.43
		c-2.36,3.97-4.72,7.94-7.08,11.91c-2.84,4.79-1.71,7.25,3.81,7.79c4.46,0.43,8.95,0.53,13.43,0.77c0.69,0.82,0.69,1.63,0,2.45
		c-3.44,0.77-6.89,1.52-10.32,2.33c-5.45,1.29-7.04,5.45-3.96,10.18c1.4,2.16,3.49,3.59,5.35,5.27c1.66,1.5,3.35,2.96,5.03,4.44
		c-2.5,0.2-5.01,0.17-7.51,0.01c-2.05-0.32-3.51-1.99-5.51-2.42c-1.05-0.48-2.15-0.84-3.28-1.09c-3.53-0.8-5.74,0.45-6.89,3.92
		c-0.13,0.39-0.23,0.78-0.36,1.17c-0.54,1.22-0.67,2.49-0.58,3.81c-0.02,3.85-0.77,7.65-0.93,11.49c-0.03,0.8-0.11,1.81-1.2,2.11
		c-0.99-3.8-2.06-7.57-3.39-11.27c-0.7-0.56-0.71-1.42-0.95-2.18C147.24,166.1,145.95,163.32,142.79,161.94z"/>
	<path class="st1" d="M182.73,141.37c0-0.82,0-1.63,0-2.45c0.03-0.54,0.09-1.08,0.09-1.63c0-17.09-0.02-34.19,0.04-51.28
		c0.01-1.59-0.39-2.16-2.02-2.03c-1.83,0.15-3.68-0.02-5.52,0.06c-4.89,0.21-7.06,2.09-8.24,6.89c-0.2,0.82,0.17,2.13-1.55,2.1
		c-1.47-0.03-2.04-0.28-1.88-1.94c0.32-3.25,0.4-6.52,0.49-9.78c0.04-1.29,0.31-1.88,1.83-1.87c14.65,0.07,29.3,0.06,43.95,0.01
		c1.43,0,1.84,0.41,1.84,1.83c0.01,3.33,0.22,6.66,0.34,9.99c0.03,0.91,0.14,1.74-1.27,1.75c-1.27,0.01-1.38-0.59-1.48-1.6
		c-0.45-4.71-2.87-7.04-7.65-7.32c-2.04-0.12-4.09,0.05-6.13-0.12c-1.76-0.15-2.27,0.33-2.26,2.19c0.08,17.5,0.05,35,0.05,52.5
		c0,0.41-0.06,0.83,0.01,1.22c0.29,1.68-0.49,2.06-2.03,1.98c-2.24-0.12-4.5-0.01-6.74-0.04
		C183.95,141.84,183.21,142.09,182.73,141.37z"/>
	<path class="st5" d="M154.93,164.89c1.16-5.62,5.24-7.12,11.09-4.08c0.59,0.9,0.69,1.83,0.17,2.8c-0.36,0.79-0.49,1.56,0.14,2.29
		c1.08,17.92,2.13,35.84,3.27,53.75c0.11,1.67-0.26,2.79-1.67,3.76c-1.9,1.31-3.67,2.82-5.43,4.32c-0.81,0.7-1.37,0.76-2.24,0.03
		c-2.29-1.92-4.68-3.74-7.03-5.6c-1.12-2.62-0.54-5.34-0.41-8.01c0.08-1.69,0.26-3.38,0.25-5.07c-0.05-7.12,0.67-14.22,0.43-21.34
		c-0.03-0.85-0.09-1.8,0.81-2.37c0.89,1.77,0.21,3.61,0.4,5.21c0.15-2.58,0.1-5.35-0.63-8.07c-0.2-2.16-0.3-4.33,0.09-6.48
		c0.58-3.43,0.13-6.92,0.57-10.36C154.77,165.4,154.79,165.13,154.93,164.89z"/>
	<path class="st1" d="M209.27,110.5c1.28-6.13,4.24-10.38,10.1-12.08c4.62-1.34,9.3-1.3,13.92,0.05c5.41,1.59,8.57,5.37,8.68,11.05
		c0.2,10.35,0.07,20.7,0.12,31.05c0,0.97-0.31,1.32-1.29,1.3c-2.18-0.05-4.36-0.08-6.54,0.01c-1.3,0.05-1.66-0.5-1.61-1.69
		c0.04-1.05-0.08-2.1-0.15-3.64c-1.11,1.31-1.87,2.24-2.66,3.14c-3.35,3.83-7.58,4.65-12.25,3.23c-4.79-1.46-8.33-4.32-9.26-9.56
		c-0.61-3.42,0.65-6.31,2.97-8.74c4.07-4.27,9.41-5.82,15.02-6.62c1.68-0.24,3.39-0.3,5.09-0.42c0.7-0.05,1.39-0.01,1.36-1.04
		c-0.13-3.46,0.36-6.95-0.5-10.37c-0.86-3.38-2.69-4.99-5.56-4.99c-2.86,0-4.73,1.64-5.63,4.94c-0.09,0.33-0.18,0.66-0.25,0.99
		c-0.69,3.53-0.69,3.5-4.23,3.42C214.22,110.46,211.84,110.5,209.27,110.5z"/>
	<path class="st1" d="M286.82,220.19c0.32,4.07,0.38,4.27-3.32,5.37c-9.46,2.82-18.53,2.48-26.14-4.7
		c-4.69-4.43-5.92-10.4-6.19-16.6c-0.09-2.11-0.02-4.22,0.25-6.32c1.36-10.37,8.5-16.37,19.32-16.15c1.69,0.04,3.41,0.17,5.07,0.51
		c7.08,1.43,10.97,6.08,11.67,13.77c0.33,3.68,0.33,3.68-3.39,3.68c-6.95,0-13.9,0.04-20.84-0.03c-1.49-0.02-1.87,0.42-1.64,1.86
		c0.48,2.96,0.97,5.9,1.95,8.75c3.29,9.56,10.13,13.29,19.97,10.84C284.59,220.9,285.61,220.55,286.82,220.19z"/>
	<path class="st1" d="M345.09,115.58c-3.81,0-7.63,0.06-11.44-0.03c-1.42-0.03-1.67,0.38-1.46,1.75c0.45,2.97,0.94,5.91,1.9,8.76
		c3.57,10.65,11.21,13.33,21.3,10.65c0.65-0.17,1.38-1.32,2.06-0.21c0.63,1.03-0.08,3.42-1.01,3.91
		c-4.97,2.57-10.32,3.06-15.71,2.27c-11.75-1.72-18.23-9.06-18.95-21.19c-0.16-2.65-0.18-5.3,0.25-7.94
		c1.7-10.59,8.94-16.45,19.73-15.91c0.48,0.02,0.95,0.06,1.43,0.09c10.96,0.66,14.73,7.3,15.09,16.66c0.05,1.31-0.68,1.2-1.53,1.2
		C352.85,115.57,348.97,115.58,345.09,115.58z"/>
	<path class="st1" d="M323.27,190.38c-2.39-1.25-4.31-2.68-6.57-3.45c-1.95-0.66-3.91-1.16-5.99-0.76c-4.6,0.87-6.15,5.13-3.18,8.77
		c0.87,1.07,2,1.84,3.19,2.51c2.14,1.2,4.3,2.35,6.43,3.56c2.14,1.22,4.01,2.76,5.68,4.61c6.62,7.31,3.26,19.19-7.6,21.02
		c-5.44,0.91-10.85,0.59-16.2-0.78c-1.23-0.31-1.83-0.86-1.73-2.25c0.13-1.76,0.03-3.53,0.03-5.39c1.06-0.09,1.63,0.68,2.32,1.12
		c3.33,2.15,6.87,3.57,10.93,3.36c1.38-0.07,2.69-0.37,3.91-1.03c3.47-1.87,4.17-5.58,1.55-8.53c-2.34-2.63-5.33-4.42-8.36-6.13
		c-2.55-1.44-5.09-2.88-7.15-5.04c-5.57-5.83-4.39-13.99,2.61-17.95c4.78-2.71,9.87-2.71,15.06-1.71c5.07,0.98,5.07,0.99,5.06,6.1
		C323.27,188.95,323.27,189.49,323.27,190.38z"/>
	<path class="st1" d="M253.46,133.85c2.05,1.16,3.73,2.19,5.48,3.09c2.74,1.41,5.67,1.86,8.72,1.49c1.1-0.13,2.12-0.48,3.07-1.05
		c3.3-1.96,3.86-5.62,1.29-8.45c-2.37-2.61-5.33-4.42-8.37-6.12c-2.02-1.13-4.04-2.27-5.8-3.79c-7.82-6.79-5.83-16.96,3.94-20.4
		c4.93-1.74,9.79-0.89,14.72-0.08c2.24,0.37,3.18,1.21,2.85,3.51c-0.18,1.26-0.03,2.58-0.03,4.17c-1.39-0.79-2.59-1.49-3.8-2.17
		c-2.61-1.45-5.36-2.37-8.39-2.07c-2.08,0.21-3.97,0.97-4.7,3.05c-0.73,2.1-0.32,4.17,1.25,5.89c1.12,1.23,2.52,2.06,3.95,2.87
		c2.84,1.61,5.89,2.88,8.42,4.99c3.99,3.32,6.8,7.24,6.02,12.85c-0.78,5.67-4.43,9.61-10.47,10.75c-5.55,1.05-11.11,0.73-16.6-0.7
		c-1.15-0.3-1.66-0.85-1.58-2.12C253.55,137.75,253.46,135.93,253.46,133.85z"/>
	<path class="st1" d="M304.83,82.81c0,5.09,0.06,9.57-0.04,14.05c-0.03,1.52,0.38,2.02,1.93,1.95c2.79-0.13,5.58,0.05,8.37-0.07
		c1.52-0.07,2.01,0.37,1.97,1.92c-0.03,1.41-0.23,2.09-1.88,2.01c-2.85-0.14-5.72,0.03-8.58-0.07c-1.46-0.05-1.82,0.45-1.81,1.86
		c0.06,8.71,0.03,17.42,0.03,26.13c0,6.32,2.13,8.34,8.4,7.96c2.6-0.16,2.71-0.02,2.45,2.54c-0.06,0.61-0.17,0.95-0.88,1.09
		c-3.75,0.76-7.53,1.36-11.34,0.65c-5.09-0.95-7.92-4.87-7.96-11.02c-0.05-8.85,0-17.69-0.02-26.54c0-2.83,0.46-2.61-2.59-2.64
		c-0.75-0.01-1.5,0-2.25,0c-2.58,0-2.53-0.01-2.42-2.63c0.05-1.02,0.44-1.27,1.36-1.24c1.5,0.05,3-0.03,4.49,0.03
		c1.03,0.04,1.64-0.29,1.4-1.37c-1.09-4.89,1.37-8.05,5.03-10.73C301.92,85.65,303.13,84.35,304.83,82.81z"/>
	<path class="st1" d="M338.48,187.09c-1.81-0.76-3.71-0.3-5.55-0.28c-1.74,0.03-1.38-1.02-1.4-1.98c-0.02-1.01-0.27-2.09,1.45-1.91
		c1.48,0.16,2.99-0.01,4.49,0.05c0.88,0.03,1.27-0.28,1.18-1.16c-0.01-0.07,0.01-0.14,0-0.2c-1.03-4.77,1.27-7.94,4.93-10.57
		c1.46-1.05,2.7-2.4,4.46-3.99c0,4.06,0,7.62,0,11.17c0,4.74,0,4.74,4.75,4.74c1.91,0,3.82,0.13,5.71-0.04
		c1.68-0.15,1.81,0.59,1.86,1.98c0.05,1.57-0.46,1.95-1.95,1.89c-2.99-0.12-5.99-0.01-8.98-0.05c-0.89-0.01-1.4,0.16-1.39,1.21
		c0.05,9.45-0.06,18.91,0.14,28.36c0.09,4.64,2.19,6.38,6.85,6.46c0.54,0.01,1.11-0.16,1.62-0.05c0.8,0.17,2.2-1.02,2.3,0.89
		c0.08,1.41,0.3,2.71-1.88,2.98c-2.84,0.35-5.66,0.76-8.52,0.61c-5.28-0.28-8.71-3.38-9.55-8.62c-0.12-0.73-0.26-1.46-0.4-2.19
		c-0.34-0.33-0.25-0.76-0.25-1.15c0-9.05,0-18.1,0-27.15C338.32,187.74,338.32,187.4,338.48,187.09z"/>
	<path class="st5" d="M139.01,220.99c-3.88,2.22-7.78,4.41-11.62,6.68c-0.87,0.52-1.44,0.39-2.15-0.2c-1.66-1.39-3.29-2.86-5.1-4.04
		c-1.52-1-1.57-1.94-0.59-3.26c0.27-0.37,0.4-0.85,0.59-1.27c0.02-1.82,1.27-3.11,2.06-4.57c6.53-12.08,13.16-24.11,19.7-36.19
		c1.03-1.91,2.06-3.83,3.1-5.74c0.47-0.86,0.81-1.91,1.98-2.17c0.34,0.15,0.5,0.43,0.61,0.76c0.22,0.89-0.03,1.75-0.17,2.62
		c-2.31,14.34-4.82,28.64-7.1,42.99C140.08,218.1,140.19,219.75,139.01,220.99z"/>
	<path class="st5" d="M132.56,134.23c3.48,3.36,3.17,6.48-0.93,8.83c-1.65,0.94-3.46,1.52-5.33,1.88c-0.44-0.25-0.93-0.16-1.4-0.16
		c-13.26,0-26.52,0-39.78,0c-0.41,0-0.82-0.04-1.21,0.12c0,0-0.04,0.17-0.04,0.18c-1.92-2.12-3.81-4.25-5.77-6.33
		c-0.68-0.72-0.5-1.08,0.24-1.54c1.85-1.14,3.69-2.32,5.5-3.52c0.75-0.5,1.56-0.4,2.37-0.39c14.29,0.27,28.59,0.54,42.88,0.82
		C130.24,134.12,131.4,134.19,132.56,134.23z"/>
	<path class="st7" d="M146.78,170.33c-8.3,15.2-16.59,30.39-24.9,45.58c-0.55,1.01-1.16,1.99-1.73,2.98
		c-2.7-1.16-2.71-1.16-1.22-3.81c8.74-15.46,17.48-30.91,26.22-46.36c0.85-1.5,0.18-3.26-1.42-3.72c-0.96-0.27-1.07,0.68-1.41,1.15
		c-6.78,9.46-13.53,18.94-20.28,28.42c-4.11,5.76-8.32,11.46-12.27,17.33c-1.3,1.93-2.48,2.35-4.37,1.2
		c5.84-8.01,11.67-16.03,17.52-24.04c6.62-9.05,13.25-18.09,19.87-27.13c1.74-0.25,2.74,0.86,3.57,2.08c1.5,2.2,2.36,4.67,2.8,7.29
		c-0.8,5.36-1.62,10.72-2.38,16.09c-1.53,10.89-3.04,21.78-4.52,32.67c-0.13,0.96-0.48,1.33-1.44,1.14
		c-0.6-0.12-1.21-0.15-1.82-0.22c2.7-16.34,5.39-32.67,8.08-49.01c0.07-0.4,0.09-0.81,0.13-1.21
		C147.37,170.32,147.39,170,146.78,170.33z"/>
	<path class="st5" d="M90.72,173.77c-2.92-1.46-5.8-3.01-8.77-4.35c-1.38-0.62-1.26-1.15-0.49-2.18c1.63-2.18,3.17-4.43,4.74-6.65
		c0.48-0.77,1.3-0.91,2.08-1.15c9.67-3.03,19.38-5.93,28.99-9.12c3.23-1.07,6.18-0.11,9.17,0.76c1.24,0.36,1.23,1.17-0.02,2.04
		c-2.18,1.52-4.52,2.77-6.8,4.12c-8.89,5.27-17.73,10.63-26.66,15.83C92.28,173.48,91.64,174.11,90.72,173.77z"/>
	<path class="st7" d="M90.72,173.77c12.15-7.2,24.31-14.41,36.97-21.92c-4.06-0.81-7.27-2.11-11.14-0.79
		c-10.03,3.44-20.22,6.39-30.35,9.53c-0.64-2.74-0.65-2.75,2.06-3.53c7.93-2.28,15.86-4.55,23.79-6.83
		c0.55-0.64,1.37-0.45,2.05-0.68c4.11-0.41,8.22-0.64,12.35-0.56c1.23,0.02,2.43,0.16,3.6,0.55c3.48,1.14,4.69,4.35,2.89,7.6
		c-0.15,0.48-0.5,0.72-0.95,0.87c-10.81,9.35-21.61,18.7-32.42,28.04c-2.62,2.26-5.28,4.48-7.92,6.72
		c-0.68-2.85,0.51-4.65,2.79-6.45c12.33-9.73,24.51-19.66,36.75-29.52c1.2-0.97,0.92-3.54-0.48-4.28c-0.72-0.38-1.11,0.33-1.58,0.62
		c-9.67,6.08-19.32,12.19-28.98,18.29c-3.03,1.91-6.06,3.81-9.42,5.93C90.72,175.9,90.72,174.83,90.72,173.77z"/>
	<path class="st8" d="M190.79,259.26c1.43-2.66,1.83-5.49,2.51-8.24c0.69-2.81,2.69-3.69,5.11-2.03c2.78,1.91,4.38,4.8,5.98,7.65
		c0.7,1.26,1.45,2.46,2.47,3.48c0.68,0.68,1.34,1.48,2.44,1.15c1.09-0.34,0.98-1.45,1.03-2.25c0.34-5.39-0.1-10.74-1.19-16.02
		c-0.29-1.4-2.04-2.4-1.09-4.2c0.35-0.66,0.43-1.52,1.31-1.64c0.93-0.13,1.53,0.51,1.9,1.27c0.35,0.73,0.77,1.5,0.84,2.28
		c0.61,6.28,2.38,12.44,2.1,18.82c-0.01,0.14,0,0.27,0,0.41c-0.17,4.58-3.16,6.34-7.2,4.11c-3.49-1.92-5.48-5.21-7.37-8.54
		c-0.74-1.3-1.51-2.54-2.84-3.56c-1.2,2.49-1.36,5.09-1.7,7.62c-0.32,2.4-1.06,4.63-2.05,6.8c-0.42,0.93-0.64,2.22-2.15,2.01
		c-1.52-0.21-2.49-1.07-2.72-2.61c-0.45-2.96-0.96-5.91-1.24-8.88c-0.62-6.5-1.09-13.01-1.69-19.51c-0.1-1.08,0.38-1.44,1.23-1.34
		c1.25,0.14,2.72,0.13,2.81,1.97c0.13,2.78,0.17,5.58,0.38,8.35C189.97,250.64,190.4,254.95,190.79,259.26z"/>
	<path class="st9" d="M87.41,255.17c-4.91-1.38-9.4-2.66-13.91-3.89c-2.14-0.58-3.83-1.73-5.01-3.6c-1.21-1.91-1.21-3.35,0.55-4.69
		c5.23-4.01,11.07-6.59,17.78-6.82c0.4-0.01,0.84,0.03,1.19,0.18c1.14,0.5,2.56,1.2,2.15,2.54c-0.28,0.91-1.66,1.13-2.95,1.07
		c-5.24-0.24-9.63,2-13.57,5.23c-1.13,0.92-1,1.74,0.44,2.35c4.03,1.71,8.26,2.74,12.49,3.74c2.04,0.48,3.85,1.33,5.43,2.69
		c1.57,1.35,1.6,1.86,0.01,3.21c-5.04,4.27-11.04,6.31-17.42,7.48c-2.96,0.54-5.93,0.8-8.88-0.01c-1.75-0.48-3.22-1.41-4.32-2.9
		c-0.77-1.04-0.42-1.97,0.29-2.77c0.93-1.05,1.44,0.15,1.95,0.58c1.76,1.47,3.67,2.07,6.02,1.93c5.68-0.33,11.04-1.57,15.79-4.86
		C86.01,256.26,86.53,255.84,87.41,255.17z"/>
	<path class="st9" d="M303.81,237.82c0.1,1.13-0.55,1.12-1.42,1.08c-0.51-0.02-0.77-0.7-1.45-0.29c-3.39,2-7.34,2.55-10.91,4.08
		c-1.13,0.49-2.93,0.58-1.16,2.52c0.72,0.79-0.08,1.51-0.82,1.95c-2.21,1.34-3.25,3.52-4.52,6.09c6.73-2.93,13.47-4.39,20.22-5.83
		c0.77-0.17,1.77-0.86,2.19,0.51c0.36,1.16-0.42,1.77-1.26,2.27c-0.89,0.53-1.9,0.79-2.92,0.87c-4.17,0.34-8.09,1.54-11.87,3.26
		c-0.68,0.31-1.68,0.35-0.98,1.65c0.49,0.92-0.53,1.11-1.12,1.28c-2.05,0.6-3.74-0.46-4.73-2.88c-2.09,5.52-0.99,7.14,4.73,7.19
		c4.95,0.04,9.59-1.04,13.89-3.48c0.79-0.45,1.67-1.07,2.07,0.3c0.3,1.01,1.15,1.97-0.75,2.88c-4.18,2.01-8.54,3.07-13.07,3.69
		c-3.57,0.49-7.18,0.45-9.53-2.69c-2.25-3.01-1.52-6.43-0.13-9.69c0.83-1.95,1.85-3.79,3-5.56c0.37-0.57,0.95-1.17-0.35-1.39
		c-1.11-0.19-1.16-1.18-1.28-2.06c-0.13-0.97,0.62-1.31,1.29-1.61c2.1-0.94,4.34-1.37,6.57-1.91c3.26-0.78,6.58-1.44,9.8-2.42
		c1.2-0.37,2.38-0.49,3.6-0.32C303.44,237.07,303.84,237.06,303.81,237.82z"/>
	<path class="st9" d="M147.09,255.14c0.51-5.49,1.24-11.49,3.22-17.26c0.27-0.79,0.36-1.75,1.63-1.75c1.39,0,2.05,0.86,2.69,1.86
		c0.52,0.82,0.39,1.46-0.24,2.19c-1.81,2.07-2.54,4.64-3.03,7.25c-0.6,3.21-0.87,6.47-0.8,9.74c0.01,0.59-0.28,1.42,0.34,1.69
		c0.72,0.31,0.91-0.62,1.29-1.03c1.25-1.35,2.38-2.8,3.68-4.09c1.67-1.66,2.8-1.65,4.61-0.13c1.33,1.11,2.24,2.57,3,4.09
		c0.93,1.89,1.81,3.82,2.5,5.8c0.7,2.01,2.01,3.32,3.82,4.31c0.54,0.29,1.72,0.29,1.42,1.09c-0.32,0.87-1.08,1.73-2.26,1.81
		c-1.54,0.11-2.57-0.75-3.48-1.81c-1.71-1.98-2.82-4.32-3.94-6.65c-0.41-0.86-0.77-1.74-1.14-2.62c-1.39-3.3-1.94-3.4-4.26-0.59
		c-1.26,1.52-2.41,3.13-3.64,4.67c-1.23,1.54-2.24,1.55-3.41-0.04C147.33,261.3,147.17,258.5,147.09,255.14z"/>
	<path class="st10" d="M449.72,287.17c-0.81,0.03-1.63,0.1-2.44,0.1c-138.67,0-277.35,0-416.02,0c-0.75,0-1.49-0.06-2.24-0.09
		c0.61-0.65,1.41-0.38,2.13-0.38c138.82-0.01,277.63-0.01,416.45,0C448.31,286.8,449.11,286.53,449.72,287.17z"/>
	<path class="st11" d="M400.95,245.98c-0.16-2.75-0.45-6.18-3.66-8.51c-1.11-0.81-0.89-2.03-0.19-2.91
		c0.71-0.89,1.61-0.17,2.35,0.26c0.34,0.2,0.64,0.53,0.85,0.86c5.63,9.28,4.7,23.18-6.31,28.66c-2.4,1.2-4.96,1.1-6.49-0.36
		c-1.81-1.73-1.75-3.93-1.06-6.07c0.87-2.7,3.03-4.29,5.5-5.42c1.08-0.49,2.02-0.04,2.54,1.03c0.55,1.15-0.1,1.68-1.1,2.15
		c-1.43,0.66-2.75,1.54-3.49,3.01c-0.43,0.85-0.89,1.79-0.18,2.68c0.73,0.92,1.75,0.6,2.63,0.27c0.75-0.28,1.53-0.67,2.1-1.21
		C399.03,255.97,401,252.73,400.95,245.98z"/>
	<path class="st11" d="M332.58,262.38c-1.67-0.46-1.86,0.26-1.65,1.8c0.34,2.56,1.73,4.7,2.47,7.08c0.55,1.74,0.95,3.5-0.68,4.87
		c-1.12,0.94-3.53,0.28-5.17-1.25c-0.3-0.28-0.59-0.57-0.83-0.9c-0.49-0.68-0.95-1.53-0.25-2.2c0.66-0.63,1.37-0.02,2,0.4
		c0.52,0.35,0.99,1.25,1.66,0.69c0.58-0.48,0.08-1.31-0.17-1.9c-1.63-3.94-2.68-7.97-2.11-12.28c0.52-3.9,2.39-6.16,5.66-6.83
		c3.28-0.68,7.1,2.83,6.74,6.16c-0.06,0.51-0.23,0.9-0.59,1.24C337.69,261.13,335.49,262.53,332.58,262.38z"/>
	<path class="st12" d="M302.95,153.57c0.1-1.04-0.51-1.49-1.42-1.62c-0.49-0.07-0.76-0.27-0.7-0.76c0.05-0.45,0.45-0.42,0.78-0.48
		c0.07-0.01,0.14-0.01,0.2-0.03c4.66-1.23,4.66-1.23,4.66,3.62c0,1.7,0,3.39,0,5.53c0.97-0.98,1.58-1.83,2.46-2.39
		c2.67-1.68,5.33-0.72,5.94,2.34c0.69,3.49,0.26,7.06,0.25,10.59c0,1.45-1.35,0.62-2.08,0.79c-0.84,0.19-1.21-0.19-1.19-1.11
		c0.05-2.72,0.01-5.45,0.02-8.17c0-1.03,0.06-2.12-1.13-2.6c-1.16-0.47-1.92,0.28-2.68,1c-1.1,1.03-1.68,2.24-1.6,3.8
		c0.09,1.63-0.11,3.28,0.06,4.9c0.18,1.79-0.39,2.54-2.21,2.21c-0.4-0.07-0.81-0.05-1.22-0.07c-0.09-0.1-0.27-0.2-0.27-0.29
		C302.83,165.06,302.53,159.31,302.95,153.57z"/>
	<path class="st11" d="M361.19,260.32c-2.13,1.67-3.8,3.29-5.89,4.32c-1.13,0.56-2.34,0.99-3.46,0.14c-1.12-0.85-0.73-2.1-0.48-3.21
		c1.4-6.32,5.76-9.96,12.22-10.23c2.51-0.11,3.04,0.5,2.5,2.99c-0.26,1.19-0.61,2.36-0.98,3.52c-0.69,2.19-0.33,4.15,1.2,5.88
		c0.54,0.61,1.33,1.33,0.63,2.06c-0.63,0.66-1.71,0.44-2.48-0.05C362.59,264.59,361.44,262.9,361.19,260.32z"/>
	<path class="st13" d="M262.02,256.49c-1.5-0.44-3.17,0.15-4.86,0.14c-0.99-0.01-1.32,0.31-0.94,1.35c0.49,1.33,0.87,2.72,1.17,4.11
		c0.46,2.1-0.91,3.48-3.02,2.96c-2.72-0.67-4.92-2.25-6.71-4.38c-1.12-1.34-0.98-2.62,0.44-3.68c0.49-0.37,1-0.71,1.53-1.01
		c2.63-1.45,2.63-1.44,1.95-4.48c-0.47-2.12-0.91-4.25-0.92-6.44c0-0.63-0.01-1.27,0.8-1.43c0.89-0.17,1.21,0.43,1.42,1.11
		c0.68,2.21,1.16,4.47,1.41,6.76c0.21,1.91,0.81,2.91,3.04,2.55c1.92-0.31,3.94-0.23,5.87,0.27c0.7,0.18,1.73,0.29,1.62,1.21
		c-0.11,0.87-1.11,0.72-1.83,0.78C262.75,256.35,262.48,256.41,262.02,256.49z"/>
	<path class="st13" d="M142.24,256.48c-1.41-0.41-2.94,0.11-4.49,0.11c-1.36,0-1.89,0.33-1.25,1.79c0.51,1.17,0.81,2.45,1.09,3.7
		c0.45,2.02-0.81,3.41-2.84,2.99c-2.97-0.61-5.32-2.33-7.13-4.73c-0.9-1.19-0.62-2.29,0.47-3.22c0.31-0.26,0.67-0.46,0.99-0.72
		c1.02-0.85,2.94-0.75,3.23-2.12c0.24-1.14-0.51-2.48-0.75-3.74c-0.27-1.4-0.6-2.8-0.66-4.22c-0.04-0.89-0.72-2.3,0.7-2.61
		c1.61-0.36,1.54,1.21,1.77,2.17c0.48,2.05,0.91,4.12,1.18,6.2c0.2,1.6,0.8,2.22,2.49,2.01c2.02-0.26,4.08-0.24,6.09,0.19
		c0.76,0.16,1.94,0.25,1.87,1.21c-0.07,0.93-1.18,0.84-1.98,0.85C142.79,256.34,142.6,256.41,142.24,256.48z"/>
	<path class="st14" d="M346.83,235.84c1.61,0.01,2.65,1.58,2.27,3.51c-0.35,1.8-0.83,3.57-1.18,5.37
		c-1.22,6.26-0.07,12.3,1.68,18.29c0.19,0.65,0.94,1.54,0.11,2.01c-0.82,0.47-1.86,0.17-2.66-0.48c-1-0.81-1.45-1.95-1.83-3.12
		c-2.58-8.04-1.68-16.11-0.17-24.18C345.31,235.86,345.49,235.83,346.83,235.84z"/>
	<path class="st15" d="M154.56,176.06c-0.01,2.17-0.02,4.34-0.03,6.52c0.29,0.93,0.36,1.86-0.04,2.79
		c-0.55,4.45-0.36,8.93-0.53,13.4c-0.3,7.8-0.5,15.6-0.74,23.41c-3.03-0.05-3.02-0.05-2.84-3.14c0.72-12.15,1.44-24.3,2.16-36.45
		c1.14-2.27,0.65-4.78,1.05-7.16c0.37-2.2,0.4-4.45,0.59-6.68c0.33-0.03,0.53,0.13,0.52,0.45
		C154.65,171.47,154.93,173.78,154.56,176.06z"/>
	<path class="st13" d="M224.44,255.67c-1.84,1.26-3.12,2.68-3.56,4.7c-0.36,1.67,0.33,2.49,2.04,2.38c3.07-0.21,6-1.21,8.98-1.86
		c0.7-0.15,1.39-0.52,2.18-0.22c-2.62,3.42-10.67,5.62-14.38,3.97c-1.35-0.6-2.12-1.58-2.26-3.12c-0.36-3.96,4.05-9.38,7.85-9.55
		c2.85-0.13,4.04,1.43,3.12,4.13c-0.59,1.74-1.95,3.08-2.45,4.9c-0.21,0.77-1.18,0.66-1.74,0.21c-0.67-0.54-1.73-0.92-1.16-2.25
		C223.5,257.95,224.4,257.1,224.44,255.67z"/>
	<path class="st13" d="M317.01,257.77c-1.22,2.5-2.22,4.51-3.73,6.17c-0.58,0.64-1.18,1.46-2.21,1.13
		c-0.89-0.28-1.06-1.16-1.22-1.97c-0.66-3.38-0.19-6.79-0.31-10.18c-0.02-0.59,0.28-1.06,0.86-1.25c0.6-0.2,1.04,0.11,1.43,0.54
		c0.64,0.71,0.76,1.49,0.69,2.45c-0.12,1.52-0.03,3.05,0.17,4.59c1.09-1.48,1.7-3.14,2.84-4.47c1.6-1.87,2.85-1.75,3.74,0.52
		c0.64,1.64,0.98,3.39,1.51,5.07c0.48,1.54,1.05,3.01,3.16,2.74c0.72-0.09,1.12,0.42,1.18,1.12c0.06,0.63,0.03,1.26-0.68,1.55
		c-1.47,0.6-2.82,0.77-4.12-0.53C318.36,263.3,317.81,260.78,317.01,257.77z"/>
	<path class="st13" d="M372.51,259.25c0.75-1.32,1.43-2.67,2.26-3.94c0.59-0.9,1.28-1.92,2.53-1.76c1.19,0.15,1.48,1.31,1.8,2.26
		c0.43,1.28,0.79,2.6,1.13,3.91c0.48,1.82,0.9,3.64,3.45,3.41c0.7-0.07,1.07,0.49,1.12,1.19c0.05,0.66-0.08,1.23-0.77,1.5
		c-1.57,0.6-2.98,0.65-4.27-0.74c-1.79-1.93-2.28-4.39-2.99-6.83c-0.98,0.47-0.99,1.47-1.44,2.18c-0.66,1.02-1.29,2.08-2.03,3.04
		c-0.65,0.84-1.31,2-2.58,1.59c-1.21-0.39-1.33-1.71-1.38-2.76c-0.15-3.05-0.13-6.11-0.18-9.17c-0.01-0.67,0.22-1.23,0.88-1.45
		c0.8-0.28,1.27,0.23,1.67,0.82c0.43,0.64,0.52,1.31,0.45,2.11c-0.13,1.51-0.04,3.04-0.04,4.57
		C372.25,259.2,372.38,259.22,372.51,259.25z"/>
	<path class="st12" d="M258.5,163.75c0.03-4.54,2.39-6.99,6.67-6.92c3.91,0.07,6.58,3.05,6.55,7.31c-0.03,4.95-2.48,7.81-6.65,7.76
		C260.97,171.84,258.47,168.74,258.5,163.75z"/>
	<path class="st13" d="M124.68,258.66c0,1.36-0.03,2.71,0.01,4.07c0.04,1.28-0.82,2.13-1.78,1.97c-1.28-0.22-2.16,0.22-3.23,0.66
		c-2.95,1.21-5.88-0.38-6.56-3.48c-0.66-2.97-0.26-5.81,1.27-8.45c0.43-0.74,0.87-1.74,2-1.16c0.98,0.51,1.09,1.4,0.77,2.46
		c-0.44,1.49-0.79,3.02-1.07,4.55c-0.21,1.13-0.31,2.53,0.97,2.96c1.44,0.48,2.43-0.61,3.02-1.84c0.84-1.75,1.01-3.64,1.05-5.56
		c0.02-1.11,0.05-2.39,1.58-2.33c1.48,0.06,1.77,1.23,1.75,2.5c-0.02,1.22,0,2.44,0,3.67C124.53,258.66,124.61,258.66,124.68,258.66
		z"/>
	<path class="st13" d="M96.31,256.72c-0.07-2.82,0.98-4.2,3.21-4.59c4-0.7,9.72,3.2,10.64,7.18c0.28,1.21,0.09,2.1-0.88,2.88
		c-1.12,0.89-2.19,1.84-3.51,2.43c-2.33,1.05-4.62,0.69-6.33-1.19C97.62,261.44,96.23,259.2,96.31,256.72z"/>
	<path class="st16" d="M84,145.36c11.16-0.03,22.32-0.06,33.49-0.09c2.03-0.01,4.06,0,6.17,0.47c-3.2,0.71-6.4,1.43-9.6,2.14
		c-0.8,0.22-1.6,0.38-2.41,0.05c-8.54,0.1-17.09,0.13-25.63,0.33C83.51,148.31,84.38,146.51,84,145.36z"/>
	<path class="st17" d="M275.56,165c0-1.43-0.02-2.86,0.01-4.28c0.03-1.19,0.18-2.4-1.67-2.13c-0.46,0.07-0.73-0.25-0.72-0.76
		c0.01-0.48,0.2-0.87,0.69-0.8c1.79,0.25,1.71-0.86,1.72-2.11c0.02-2.04,0.76-3.76,2.81-4.54c2.16-0.82,4.28-0.68,6.19,0.73
		c0.66,0.49,1.22,1.13,1.25,2.01c0.01,0.42-0.43,0.53-0.76,0.46c-0.97-0.21-2.13,0.61-2.9-0.75c-0.88-1.56-2.08-1.72-3-0.65
		c-0.44,0.52-0.41,1.13-0.44,1.74c-0.16,2.9-0.15,2.9,2.75,3.07c0.57,0.03,1.34-0.17,1.37,0.77c0.03,1.12-0.85,0.82-1.47,0.85
		c-2.65,0.12-2.65,0.11-2.65,2.78c0,2.79-0.09,5.58,0.03,8.36c0.06,1.49-0.73,1.39-1.76,1.45c-1.18,0.07-1.53-0.37-1.46-1.5
		C275.62,168.13,275.56,166.57,275.56,165z"/>
	<path class="st18" d="M325.24,162.58c-1.3,0.45-3.49-1.08-3.88,0.94c-0.56,2.89,1.95,5.93,4.48,6.11c0.8,0.06,1.62-0.07,2.44-0.15
		c0.44-0.04,0.99-0.43,1.14,0.33c0.11,0.55-0.33,0.8-0.78,1.05c-3.97,2.22-9.57-0.19-10.67-4.59c-0.34-1.34-0.38-2.7-0.24-4.06
		c0.48-4.67,5.59-7.18,9.66-4.78c0.67,0.39,1.17,0.92,1.54,1.6c1.4,2.6,0.85,3.56-2.05,3.56
		C326.33,162.57,325.78,162.57,325.24,162.58z"/>
	<path class="st13" d="M240.42,251.81c1.01,0.06,2.04-0.15,3.02,0.25c1.09,0.44,1.69,1.32,1.47,2.39c-0.25,1.22-1.28,0.52-2.02,0.5
		c-1.72-0.04-4.12-0.93-4.88,0.73c-0.59,1.28,1.76,2.33,2.85,3.44c1.13,1.16,2.62,1.97,3.45,3.43c0.87,1.52,0.37,2.54-1.34,2.6
		c-1.49,0.05-2.99-0.09-4.4-0.65c-1.98-0.79-2.42-1.8-1.41-3.72c0.43-0.83-0.08-1.13-0.44-1.54c-0.94-1.08-1.81-2.18-2.49-3.46
		c-0.84-1.58-0.28-2.6,1.21-3.25C237.01,251.83,238.71,251.79,240.42,251.81z"/>
	<path class="st19" d="M297.16,152.27c0,0.46,0,0.92,0,1.38c0.01,3.02,0.01,3.02,2.89,3.34c0.48,0.05,1.04-0.01,1.07,0.65
		c0.04,0.83-0.62,0.71-1.15,0.75c-2.81,0.23-2.81,0.24-2.81,3.17c0,1.9,0.05,3.81-0.02,5.71c-0.06,1.72,0.49,2.79,2.4,2.74
		c0.47-0.01,1.02-0.1,1.05,0.61c0.03,0.66-0.56,0.68-0.99,0.8c-3.48,0.96-5.58-0.64-5.6-4.28c-0.01-2.38-0.02-4.76,0.01-7.14
		c0.01-0.93,0.1-1.83-1.3-1.63c-0.49,0.07-1.01-0.02-1.01-0.68c0-0.66,0.5-0.76,1-0.69c1.15,0.16,1.33-0.43,1.32-1.42
		C293.99,153.69,295.88,153.29,297.16,152.27z"/>
	<path class="st20" d="M184.76,171.61c-0.44-1.14-0.87-2.29-0.8-3.55c3,2.53,5.99,5.07,8.99,7.6c0.08,0.38,0,0.6-0.45,0.43
		C189.92,174.6,187.34,173.1,184.76,171.61z"/>
	<path class="st21" d="M338.48,187.09c0.36,2.77,0.14,5.55,0.15,8.33c0.02,6.99-0.03,13.98-0.05,20.97
		c-0.16,0.42,0.14,0.96-0.46,1.44c0-5.48,0-10.82,0-16.16c0-4.15-0.01-8.29,0.01-12.44C338.13,188.5,337.86,187.71,338.48,187.09z"
		/>
	<path class="st22" d="M303.81,237.82c-0.19-0.38-0.54-0.44-0.91-0.5c3.36-0.94,6.75-1.52,10.26-1.18c0.26,0.46-0.22,0.58-0.4,0.84
		c-2.28-0.17-4.42,0.92-6.76,0.71C305.45,237.63,304.48,237.16,303.81,237.82z"/>
	<path class="st23" d="M302.95,153.57c0.04,5.85,0.08,11.69,0.12,17.54c-0.54-0.25-0.52-0.74-0.52-1.21c0-5.08,0-10.16,0-15.24
		C302.54,154.24,302.58,153.84,302.95,153.57z"/>
	<path class="st24" d="M106.74,149.53c0.3,0.45,0.84,0.25,1.23,0.45c-1.2,0.59-2.46,0.23-3.71,0.25
		C105.05,149.83,105.8,149.35,106.74,149.53z"/>
	<path class="st25" d="M114.09,149.56c-0.63,0.39-1.3,0.64-2.05,0.68c-0.47-0.52-1.13-0.2-1.68-0.39
		C111.57,149.31,112.84,149.5,114.09,149.56z"/>
	<path class="st26" d="M90.86,182.58c0-1.09,0-2.17,0-3.26c0.07,0,0.13,0,0.2,0c0,1.09,0,2.17,0,3.26
		C90.99,182.58,90.92,182.58,90.86,182.58z"/>
	<path class="st27" d="M125.58,124.08c-0.18,0.18-0.36,0.36-0.54,0.54c-0.47-0.44-0.94-0.89-1.62-1.54
		C124.58,122.99,125.06,123.57,125.58,124.08z"/>
	<path class="st28" d="M111.63,147.92c0.8-0.02,1.61-0.03,2.41-0.05c-0.87,0.44-1.78,0.72-2.77,0.69
		C111.4,148.35,111.52,148.14,111.63,147.92z"/>
	<path class="st29" d="M312.77,236.98c0.13-0.28,0.26-0.56,0.4-0.84c0.54,0.08,1.15-0.25,1.67,0.25
		C314.36,237.41,313.44,236.76,312.77,236.98z"/>
	<path class="st30" d="M192.5,176.09c0.15-0.14,0.3-0.29,0.45-0.43c0.65,0.32,1.17,0.79,1.66,1.6
		C193.66,177.06,193.07,176.59,192.5,176.09z"/>
	<path class="st31" d="M138.92,132.35c-0.41-0.34-0.55-0.8-0.62-1.3c0.43-0.01,0.82,0.09,1.13,0.41c0.03,0.11,0.04,0.23,0.02,0.35
		C139.41,132.13,139.23,132.3,138.92,132.35z"/>
	<path class="st32" d="M172.56,118.46c-0.15-0.14-0.29-0.29-0.44-0.43c0.23-0.38,0.53-0.97,0.95-0.62
		C173.39,117.66,172.93,118.18,172.56,118.46z"/>
	<path class="st1" d="M380,364.84c-5.57,0-10.65,0-15.74,0c-1.1,0-1.44-0.92-1.96-1.59c-4.28-5.64-8.54-11.29-12.8-16.93
		c-0.7-0.92-4.38-1.63-5.24-0.99c-0.59,0.44-0.35,1.13-0.35,1.71c-0.02,5.24-0.09,10.48,0.03,15.72c0.04,1.75-0.52,2.18-2.19,2.12
		c-3.26-0.13-6.54-0.08-9.81-0.01c-1.17,0.02-1.52-0.38-1.52-1.52c0.03-16.75,0.03-33.49,0-50.24c0-1.18,0.43-1.52,1.56-1.51
		c8.31,0.06,16.62,0.01,24.93,0.11c3.02,0.04,5.94,0.76,8.57,2.34c7.45,4.46,9.09,16.11,3.22,22.88c-1.52,1.76-3.18,3.4-5.3,4.42
		c-1.28,0.62-1.12,1.11-0.34,2.09C368.64,350.41,374.14,357.42,380,364.84z"/>
	<path class="st1" d="M101.34,355.72c0-1.63-0.02-3.27,0.01-4.9c0.01-0.49-0.26-1.15,0.45-1.41c0.57-0.21,1.04,0.05,1.49,0.41
		c2.31,1.83,4.85,3.26,7.62,4.3c4.26,1.6,8.6,2.51,13.18,1.72c1.36-0.23,2.65-0.63,3.81-1.38c3.1-2,3.05-5.76-0.1-7.68
		c-2.8-1.71-6.04-2.01-9.13-2.76c-3.11-0.75-6.15-1.68-9.07-3.04c-9.98-4.66-10.47-19.64-2.08-25.67c3.83-2.75,8.03-4.38,12.63-4.76
		c6.85-0.56,13.57,0.27,20.06,2.7c1.2,0.45,1.72,0.99,1.68,2.32c-0.1,2.99-0.01,5.99-0.05,8.98c-0.01,0.56,0.33,1.32-0.37,1.66
		c-0.72,0.34-1.28-0.21-1.83-0.62c-4.81-3.53-10.13-5.5-16.17-5.29c-1.87,0.06-3.65,0.5-5.29,1.36c-1.65,0.87-2.91,2.17-2.81,4.16
		c0.09,1.95,1.34,3.21,3.09,3.97c2.83,1.22,5.88,1.65,8.86,2.35c2.99,0.71,5.92,1.56,8.66,2.98c7.89,4.11,10.53,13.9,5.8,21.5
		c-3.48,5.59-8.89,8.05-15.09,9c-8.05,1.23-15.84,0.06-23.44-2.79c-1.44-0.54-2.09-1.24-1.94-2.81
		C101.44,358.59,101.34,357.15,101.34,355.72z"/>
	<path class="st1" d="M298.04,354.57c6.67,0.02,13.35,0.11,20.02,0.02c1.75-0.02,2.22,0.51,2.11,2.18
		c-0.14,2.17-0.08,4.36-0.02,6.53c0.03,1.09-0.22,1.57-1.45,1.57c-11.03-0.04-22.07-0.04-33.1-0.01c-1.11,0-1.56-0.29-1.56-1.48
		c0.03-16.74,0.03-33.49,0-50.23c0-1.13,0.35-1.55,1.51-1.55c11.03,0.03,22.07,0.03,33.1,0c1.19,0,1.52,0.44,1.49,1.56
		c-0.06,2.24-0.11,4.5,0.01,6.74c0.09,1.52-0.37,1.98-1.92,1.96c-6.4-0.09-12.8,0.04-19.2-0.09c-1.5-0.03-1.67,0.48-1.62,1.68
		c0.08,2.04,0.18,4.09,0.05,6.12c-0.1,1.39,0.32,1.75,1.66,1.73c5.72-0.06,11.44,0.04,17.16-0.07c1.72-0.03,2.3,0.48,2.13,2.17
		c-0.26,2.69,0.37,5.43-0.35,8.11c-0.62,0.43-1.32,0.22-1.98,0.22c-5.51,0.02-11.02,0.05-16.53-0.02c-1.29-0.01-1.83,0.28-1.75,1.68
		C298.01,347.12,297.58,350.85,298.04,354.57z"/>
	<path class="st1" d="M252.59,346.69c2.19-6.78,4.38-13.56,6.56-20.34c1.4-4.34,2.83-8.66,4.14-13.02c0.4-1.36,1.04-1.8,2.44-1.75
		c2.99,0.11,5.99,0.03,8.99,0.04c2.86,0,2.87,0,1.9,2.8c-4.77,13.81-9.54,27.62-14.3,41.43c-0.84,2.44-1.73,4.87-2.47,7.34
		c-0.37,1.25-0.96,1.72-2.3,1.68c-3.54-0.09-7.08-0.11-10.62,0.01c-1.42,0.05-2-0.45-2.45-1.75c-4.9-14.42-9.86-28.81-14.8-43.21
		c-0.79-2.31-1.59-4.63-2.42-6.93c-0.31-0.85-0.41-1.41,0.81-1.39c3.88,0.04,7.76,0.05,11.64,0c1.39-0.02,1.44,1.03,1.72,1.88
		c3.33,10.35,6.65,20.7,9.97,31.05c0.22,0.7,0.47,1.39,0.71,2.09C252.29,346.65,252.44,346.67,252.59,346.69z"/>
	<path class="st1" d="M157.79,338.09c0-5.11-0.04-10.21,0.02-15.32c0.02-1.29-0.3-1.95-1.69-1.73c-0.2,0.03-0.41,0.02-0.61,0
		c-1.74-0.14-4.01,0.77-5.09-0.41c-1.06-1.15-0.3-3.38-0.32-5.13c-0.04-3.88-0.01-3.88,3.83-3.88c7.7,0,15.4,0.05,23.1-0.04
		c1.65-0.02,2.13,0.49,2.02,2.08c-0.13,1.9-0.12,3.82,0,5.72c0.09,1.41-0.46,1.77-1.76,1.69c-1.49-0.09-3,0.04-4.49-0.04
		c-1.19-0.06-1.5,0.43-1.49,1.55c0.03,10.49,0.03,20.97,0,31.46c0,1.06,0.34,1.46,1.41,1.41c1.63-0.07,3.27,0.03,4.9-0.03
		c1.05-0.04,1.45,0.31,1.42,1.4c-0.07,2.25-0.05,4.49-0.01,6.74c0.02,0.96-0.3,1.32-1.29,1.31c-8.79-0.03-17.58-0.02-26.37,0
		c-0.98,0-1.32-0.36-1.3-1.32c0.04-2.31,0.04-4.63,0-6.95c-0.01-0.89,0.37-1.2,1.22-1.18c1.63,0.03,3.27-0.07,4.9,0.03
		c1.27,0.08,1.63-0.39,1.61-1.63C157.76,348.58,157.79,343.34,157.79,338.09z"/>
	<path class="st1" d="M188.94,338.07c0-8.16,0.03-16.33-0.03-24.49c-0.01-1.47,0.32-2.06,1.91-2c3.19,0.12,6.4,0.12,9.59,0
		c1.61-0.06,2.07,0.43,2.06,2.06c-0.06,12.86,0.01,25.72-0.08,38.57c-0.01,1.96,0.48,2.52,2.46,2.47
		c6.05-0.13,12.12-0.01,18.17-0.08c1.34-0.01,1.8,0.36,1.75,1.71c-0.09,2.38-0.07,4.76-0.01,7.14c0.03,1.08-0.38,1.4-1.43,1.4
		c-10.96-0.03-21.92-0.05-32.88,0.02c-1.58,0.01-1.55-0.81-1.54-1.91C188.95,354.67,188.94,346.37,188.94,338.07z"/>
	<path class="st1" d="M237.93,414.87c0.07,3.29-0.36,6.51-1.56,9.6c-1.55,4-4.23,5.56-9.23,5.46c-4.63-0.1-7.63-1.96-8.77-5.9
		c-1.64-5.62-1.08-11.23,1.22-16.54c1.8-4.17,5.94-5.64,11.29-4.55c4.09,0.84,6.68,4.08,7.04,8.88
		C238,412.82,237.93,413.85,237.93,414.87z"/>
	<path class="st1" d="M202.07,420.33c3.21,0.83,5.88,1.59,8.58,2.2c1.62,0.36,2.49,0.94,1.63,2.71c-0.2,0.42-0.26,0.91-0.35,1.38
		c-0.17,0.92-0.61,1.24-1.57,0.98c-5.45-1.46-10.91-2.89-16.37-4.29c-0.86-0.22-1.09-0.57-0.87-1.43c0.47-1.81,1.04-3.26,3.13-4.06
		c3.48-1.35,6.77-3.19,9.71-5.55c0.47-0.38,0.92-0.81,1.31-1.27c1.26-1.51,1.9-3.3,1.01-5.11c-0.86-1.75-2.65-2.19-4.51-2.26
		c-1.31-0.05-2.6,0.1-3.82,0.53c-1.3,0.45-1.43-0.1-1.19-1.14c0.01-0.07,0.03-0.13,0.05-0.2c0.86-4.12,0.86-4.1,5.11-4.09
		c1.65,0,3.25,0.26,4.82,0.75c3.12,0.98,5.93,2.47,6.62,5.96c0.74,3.71-0.74,6.82-3.52,9.28c-1.9,1.67-4.06,2.97-6.35,4.04
		C204.5,419.22,203.53,419.66,202.07,420.33z"/>
	<path class="st1" d="M252.47,424.4c2.83-0.24,5.67-0.45,8.5-0.75c1.32-0.14,1.93,0.1,2,1.64c0.14,3.12,0.24,3.06-2.91,3.31
		c-4.54,0.36-9.07,0.85-13.62,1.19c-0.77,0.06-2.07,0.68-2.29-0.49c-0.25-1.34-1.15-2.83,0.3-4.2c2.68-2.52,5.25-5.15,7.35-8.2
		c1.12-1.63,2.19-3.3,2.09-5.42c-0.12-2.41-1.49-3.76-3.91-3.76c-2.07,0-3.81,0.86-5.43,2.08c-0.41,0.31-0.8,0.9-1.39,0.64
		c-0.51-0.23-0.28-0.84-0.32-1.29c-0.4-4.76-0.4-4.76,4.38-5.97c2.81-0.71,5.63-1.07,8.44-0.05c3.91,1.43,5.74,5.63,4.43,10.15
		c-1,3.44-3.24,6.1-5.71,8.57c-0.71,0.71-1.54,1.29-2.32,1.94C252.2,423.99,252.33,424.2,252.47,424.4z"/>
	<path class="st1" d="M270.22,407.74c-1.06,0.29-2.13,0.51-3.15,0.87c-1.11,0.4-1.44,0.03-1.83-1.05c-0.69-1.91-0.64-3.08,1.65-3.64
		c1.61-0.39,2.74-1.57,2.75-3.38c0.01-1.2,0.98-1,1.58-1.18c3.81-1.14,3.81-1.11,4.82,2.67c1.37,5.11,2.84,10.2,4.12,15.33
		c0.41,1.64,1.1,1.99,2.52,1.33c0.12-0.06,0.26-0.09,0.39-0.13c2.75-0.76,3.87,0.13,3.89,2.99c0.01,0.79-0.48,0.88-1,1.02
		c-4.78,1.3-9.57,2.59-14.35,3.9c-0.82,0.22-1.29,0.01-1.46-0.87c-0.13-0.66-0.3-1.33-0.54-1.96c-0.39-1.03-0.02-1.39,1-1.69
		c3.9-1.15,3.89-1.19,2.84-5.17c-0.68-2.56-1.36-5.12-2.06-7.67C271.23,408.49,271.19,407.7,270.22,407.74z"/>
	<path class="st33" d="M319.67,311.18c-11.67,0-23.33,0-35,0c0-0.05,0-0.1,0-0.15c11.67,0,23.33,0,35,0
		C319.67,311.09,319.67,311.13,319.67,311.18z"/>
	<path class="st34" d="M298.04,354.57c-0.76-0.23-0.5-0.88-0.5-1.36c-0.02-3.39,0.04-6.78-0.04-10.17c-0.03-1.3,0.46-1.59,1.65-1.57
		c6.31,0.06,12.62,0.04,18.92,0.04c-0.57,0.72-1.38,0.43-2.09,0.43c-5.37,0.02-10.74,0.05-16.1-0.01c-1.41-0.02-1.9,0.41-1.87,1.85
		C298.1,347.37,298.04,350.97,298.04,354.57z"/>
	<path class="st33" d="M150.99,310.95c9.18,0,18.35,0,27.53,0c0,0.07,0,0.13,0,0.2c-9.2,0-18.41,0-27.61,0
		C150.94,311.08,150.96,311.02,150.99,310.95z"/>
	<path class="st35" d="M330.78,311.01c8.68,0,17.36,0,26.04,0c0,0.05,0,0.1,0,0.16c-8.68,0-17.36,0-26.04,0
		C330.78,311.11,330.78,311.06,330.78,311.01z"/>
	<path class="st36" d="M166.19,163.61c-0.06-0.93-0.11-1.86-0.17-2.8c2.02,0.44,3.64,1.65,5.29,2.79
		C169.6,163.78,167.89,163.75,166.19,163.61z"/>
	<path class="st37" d="M109.93,187.05c0.16,0.16,0.32,0.32,0.48,0.48c-1.03,0.96-2.06,1.93-3.09,2.89
		C107.99,189.14,108.73,187.91,109.93,187.05z"/>
	<path class="st38" d="M131.97,158.01c0.32-0.29,0.63-0.58,0.95-0.86c0.34,0.6-0.08,0.97-0.42,1.37
		C132.33,158.35,132.15,158.18,131.97,158.01z"/>
	<path class="st1" d="M138.92,132.35c0.18-0.18,0.35-0.36,0.53-0.54c1.35,0.9,2.73,1.76,4.06,2.7c2.2,1.57,3.14,1.23,3.73-1.51
		c0.49-2.28,0.89-4.59,1.42-7.33c1.01,2.14,1.39,4.04,1.89,5.88c0.83,3.09,2.66,3.76,5.23,1.84c0.97-0.73,1.86-1.57,2.78-2.37
		c0.75-0.03,0.77,0.35,0.49,0.89c-0.61,1.28-1.34,2.53-1.81,3.86c-0.84,2.36,0.23,4.17,2.68,4.74c2.28,0.53,4.61,0.31,6.92,0.35
		c0.71,0.01,1.42,0,2.22,0.4c-2.14,0.95-4.29,1.89-6.42,2.84c-3.95,1.77-4.58,4.37-1.77,7.7c1.36,1.61,2.87,3.09,4.32,4.62
		c0.11,0.4-0.03,0.57-0.45,0.49c-1.98-0.91-3.92-1.91-5.94-2.71c-3.96-1.57-5.56-0.63-6.15,3.59c-0.31,2.22-0.37,4.47-0.57,6.71
		c-0.07,0.79,0.06,1.65-0.59,2.37c-0.74-2.81-1.4-5.59-2.22-8.32c-1.38-4.57-3.55-5.25-7.49-2.43c-1.58,1.13-3.11,2.34-5.15,2.9
		c0.96-1.25,1.95-2.48,2.88-3.75c0.76-1.04,1.57-2.07,2.14-3.22c1.32-2.67,0.32-4.51-2.66-4.95c-1.75-0.26-3.52-0.35-5.28-0.53
		c-0.72-0.07-1.5,0.06-2.18-0.57c2.17-0.76,4.3-1.43,6.38-2.24c3.85-1.5,4.56-3.18,3.01-6.94
		C140.27,135.33,139.58,133.85,138.92,132.35z"/>
	<path class="st39" d="M83.9,144.89c0.5-0.52,1.15-0.3,1.74-0.31c12.91-0.01,25.82-0.01,38.73,0c0.65,0,1.37-0.23,1.93,0.36
		C112.16,144.92,98.03,144.91,83.9,144.89z"/>
	<path class="st40" d="M154.56,176.06c-0.4-2.43,0.4-4.92-0.37-7.33c-0.11-1.35-0.06-2.67,0.74-3.85
		C154.96,168.62,155.01,172.35,154.56,176.06z"/>
	<path class="st41" d="M159.04,131.92c-0.03-0.37-0.1-0.72-0.49-0.89c0.41-0.57,0.83-1.14,1.74-1.42
		C159.97,130.54,159.65,131.3,159.04,131.92z"/>
	<path class="st42" d="M164.7,156.92c0.15-0.16,0.3-0.33,0.45-0.49c0.38,0.16,0.86,0.54,0.65,0.8
		C165.45,157.68,165.02,157.24,164.7,156.92z"/>
	<path class="st43" d="M154.49,185.36c0.01-0.93,0.02-1.86,0.04-2.79c0.91,2.82,0.15,5.69-0.04,8.54
		C154.49,189.2,154.49,187.28,154.49,185.36z"/>
	<path class="st3" d="M232.77,125.06c-0.03,2.19-0.28,4.35-0.91,6.45c-0.21,0.71-0.47,1.43-0.8,2.1c-1.6,3.26-5.04,4.9-8.3,3.99
		c-2.55-0.72-4.31-4.09-3.94-7.55c0.31-2.93,1.78-5.09,4.34-6.51c2.62-1.46,5.51-1.89,8.43-2.23c0.91-0.1,1.24,0.21,1.18,1.1
		C232.72,123.29,232.77,124.18,232.77,125.06z"/>
	<path class="st3" d="M269.95,195.61c-2.31,0-4.62,0.01-6.93,0c-0.65,0-1.33,0.17-1.38-0.94c-0.25-5.04,4.66-9.79,9.75-9.34
		c3.45,0.3,5.62,2.55,6.52,6.77c0.75,3.52,0.75,3.52-2.86,3.52C273.35,195.61,271.65,195.61,269.95,195.61z"/>
	<path class="st3" d="M340.57,111.45c-2.38,0-4.75,0.01-7.13-0.01c-0.56,0-1.17,0.21-1.22-0.84c-0.23-4.44,3.8-9.13,8.2-9.43
		c4.04-0.27,6.6,1.59,7.76,5.66c1.32,4.61,1.32,4.61-3.33,4.61C343.42,111.45,341.99,111.45,340.57,111.45z"/>
	<path class="st44" d="M146.78,170.33c0.02-0.43,0.42-0.98,0.56-0.88c0.52,0.39,0.19,0.89-0.12,1.31
		C147.07,170.62,146.92,170.48,146.78,170.33z"/>
	<path class="st45" d="M334.87,255.36c0.85,0.09,1.73,0.23,2.01,1.11c0.26,0.83-0.64,1.07-1.12,1.49c-0.25,0.22-0.55,0.42-0.86,0.53
		c-1.1,0.41-2.6,1.36-3.17-0.16c-0.5-1.32,0.85-2.26,2.17-2.7C334.22,255.52,334.55,255.45,334.87,255.36z"/>
	<path class="st46" d="M355.05,261.05c0.92-3.86,3.74-5.7,7.69-7.18C360.52,257.18,357.81,259.14,355.05,261.05z"/>
	<path class="st46" d="M254.29,260.9c0.06,0.72-0.23,0.94-0.71,0.72c-1.04-0.48-2.61-0.52-2.72-1.91c-0.06-0.7,0.54-2.13,1.67-1.92
		C254.2,258.1,253.67,259.97,254.29,260.9z"/>
	<path class="st47" d="M134.44,260.86c0.09,0.69-0.13,0.97-0.66,0.77c-1.1-0.41-2.62-0.55-2.8-1.9c-0.09-0.68,0.51-2.13,1.65-1.96
		C134.39,258.04,133.82,259.94,134.44,260.86z"/>
	<path class="st3" d="M261.96,163.85c0.01-1.5,0.06-3.01,0.78-4.37c1.02-1.93,2.95-2.1,4.26-0.39c1.57,2.03,1.7,8.09,0.22,10.2
		c-1.1,1.56-3.1,1.42-4.22-0.29C262.31,167.94,261.97,166.23,261.96,163.85z"/>
	<path class="st48" d="M101.45,255.21c1.17,0.13,2.32,0.52,3.36,1.18c1.24,0.78,2.47,1.82,2.2,3.36c-0.31,1.73-2.07,2.39-3.51,2.67
		c-1.53,0.29-2.26-1.2-2.78-2.44c-0.39-0.92-0.55-1.94-0.84-2.9C99.45,255.69,100.09,255.2,101.45,255.21z"/>
	<path class="st49" d="M323.78,161.32c-0.78-0.54-2.2,0.73-2.48-0.92c-0.2-1.17,1.35-2.51,2.71-2.51c1.65,0,2.47,1.11,2.37,2.47
		C326.24,162.13,324.61,160.75,323.78,161.32z"/>
	<path class="st50" d="M348.66,321.54c1.16,0,2.32-0.08,3.47,0.01c3.94,0.33,5.95,2.18,6.09,5.52c0.18,4.38-1.84,7.26-5.65,7.88
		c-2.42,0.39-4.86,0.45-7.31,0.46c-1.12,0.01-1.38-0.45-1.37-1.46c0.04-3.53,0.08-7.07-0.02-10.6c-0.04-1.51,0.37-2.14,1.93-1.95
		c0.94,0.11,1.9,0.02,2.85,0.02C348.66,321.47,348.66,321.5,348.66,321.54z"/>
	<path class="st51" d="M231.51,414.18c-0.09,2.52-0.35,5.01-0.95,7.45c-0.16,0.65-0.42,1.29-0.72,1.89
		c-0.56,1.14-1.52,1.76-2.79,1.62c-1.47-0.16-2.29-1.13-2.56-2.52c-0.81-4.29-0.24-8.5,0.91-12.64c0.4-1.45,1.38-2.6,3.07-2.48
		c1.77,0.13,2.54,1.45,2.79,3.03C231.45,411.73,231.43,412.96,231.51,414.18z"/>
</g>
</svg>
