<?xml version="1.0" encoding="utf-8"?>
<!-- Generator: Adobe Illustrator 26.2.0, SVG Export Plug-In . SVG Version: 6.00 Build 0)  -->
<svg version="1.1" id="Layer_1" xmlns="http://www.w3.org/2000/svg" xmlns:xlink="http://www.w3.org/1999/xlink" x="0px" y="0px"
	 viewBox="0 0 481.57 471.16" style="enable-background:new 0 0 481.57 471.16;" xml:space="preserve">
<style type="text/css">
	.st0{fill:#EC2429;}
	.st1{fill:#FFFFFF;}
	.st2{fill:#ED2127;}
</style>
<g>
	<polygon class="st0" points="157.42,120.36 132,156.57 129.18,188.14 119.76,223.03 104.26,236.87 104.26,267.89 115.89,300.01 
		136.38,321.05 157.42,326.59 167.39,336.56 186.22,348.19 201.17,367.24 227.76,373.11 251.02,373.11 277.6,373.11 292,362.01 
		304.18,345.42 317,340.44 324.68,327.14 349.72,321.05 364,300.01 375.99,282.63 380.06,259.03 380.06,235.76 367.32,220.26 
		356.8,205.86 352.37,180.38 349.72,160.45 332.36,138.3 322.17,127.91 306.4,120.36 285.91,113.37 244.73,120.36 220,116.14 
		191.76,113.37 167.39,124.45 	"/>
	<path class="st0" d="M131.95,93.16c0,0-79.75-27.41-107.16,70.61c-24.92,72.27-5.81,95.53-5.81,95.53s9.14,22.43,49.01,40.71
		c49.01-17.45,49.01-17.45,49.01-17.45l1.66-44.03l19.11-35.72v-39.87l26.58-24.92L131.95,93.16z"/>
	<path class="st0" d="M349.71,93.58c0,0,1.97-84.78-100.32-81.18c-76.85-1.86-93.33,23.54-93.33,23.54S137.36,51.53,132,95.31
		c31.65,41.65,31.65,41.65,31.65,41.65l42.7-11.82l40.05,7.43l38.21-12.15l31.98,17.88L349.71,93.58z"/>
	<path class="st0" d="M421.12,296.1c0,0,80.39-27,42.19-121.96c-24.41-72.9-53.9-79.74-53.9-79.74s-21.03-12.28-64.02-2.43
		C317,135.92,317,135.92,317,135.92l25.65,36.12l6.65,40.19l24.43,31.79l-5.93,36.16L421.12,296.1z"/>
	<path class="st0" d="M244.9,424.08c0,0,49.08,69.15,128.95,5.13c62.73-44.44,60.76-74.65,60.76-74.65s5.68-23.68-16.18-61.99
		c-50.27-14.48-50.27-14.48-50.27-14.48l-27.17,35l-36.55,17.99l-23.37,32.58l-36.33,4.78L244.9,424.08z"/>
	<path class="st0" d="M67.43,298.72c0,0-49.88,68.58,36.28,123.85c62.13,45.28,90.13,33.77,90.13,33.77s24.26-2.17,53.59-35.11
		c-2.32-52.27-2.32-52.27-2.32-52.27l-41.83-14.58l-28.71-28.9l-38.33-11.76l-16.12-32.9L67.43,298.72z"/>
</g>
<g>
	<path class="st1" d="M146.07,128.05c0,0-18.28-38.21-47.35-19.94c-10.24,7.31-15.78,24.92-15.78,24.92s-0.83,23.26-9.97,51.5
		c-9.14,28.24-22.43,59.81-22.43,59.81s-4.15,20.77,9.14,30.74c23.47,19.53,42.37,0,42.37,0s-9.75-9.97-4.04-35.72
		c5.29-18.69,19.83-29.08,19.83-29.08l-7.48-11.63l13.29-7.06C123.64,191.6,107.86,160.86,146.07,128.05z"/>
	<path class="st1" d="M320.58,117.75c0,0,31.05-29.16,4.68-51.45c-10.12-7.58-28.69-7.53-28.69-7.53s-22.54,6.29-52.4,6.14
		c-29.85-0.15-64.15-3.27-64.15-3.27s-21.17,2.35-26.67,18.12c-11.56,28.44,12.91,40.6,12.91,40.6s6.58-12.38,33-14.76
		c19.52-0.62,33.9,10.14,33.9,10.14l8.87-10.71l10.82,10.59C252.85,115.62,277.49,91.13,320.58,117.75z"/>
	<path class="st1" d="M388.48,276.94c0,0,37.99,19.27,49.98-13.12c3.68-12.1-2.69-29.54-2.69-29.54s-13.59-19.05-23.61-47.18
		c-10.02-28.12-18.76-61.43-18.76-61.43s-9.41-19.11-26.12-18.91c-30.67-1.19-33.78,25.95-33.78,25.95s13.89,1.97,25.11,26.01
		c7.23,18.14,2,35.33,2,35.33l13.09,4.69l-6.27,13.77C367.43,212.52,398.85,227.36,388.48,276.94z"/>
	<path class="st1" d="M253.81,387.29c0,0-7.47,41.94,27,44.05c12.65,0.03,27.5-11.11,27.5-11.11s14.31-18.52,38.34-36.24
		c24.02-17.72,53.38-35.72,53.38-35.72s15.57-14.54,10.55-30.47c-7.72-29.71-34.61-24.84-34.61-24.84s2.12,13.86-17.64,31.56
		c-15.28,12.17-33.24,12.13-33.24,12.13l-0.71,13.88l-15-2.02C309.39,348.52,304.27,382.89,253.81,387.29z"/>
	<path class="st1" d="M105.14,295.44c0,0-42.13,6.3-33.13,39.64c4.01,12,19.3,22.52,19.3,22.52s22.11,7.66,46.58,24.78
		c24.45,17.11,50.88,39.2,50.88,39.2s18.74,10.12,32.24,0.28c25.69-16.8,12.5-40.73,12.5-40.73s-12.46,6.43-35.53-6.65
		c-16.41-10.6-22.1-27.64-22.1-27.64l-13.39,3.75l-2.87-14.86C159.62,335.74,125.41,341.85,105.14,295.44z"/>
	<path class="st1" d="M238.62,196.12c0,0-1.72-59.81-28.17-64.17c-13.82-1.73-21.32,13.24-21.32,13.24s-9.57,15.09-20.7,16.95
		c-11.13,1.86-11.75,3.14-18.3,10.16c-8.81,11.3,1.31,23.75,1.31,23.75s6.1,9.95,18.44,15.1c12.35,5.14,32.23,11.12,32.23,11.12
		L238.62,196.12z"/>
	<path class="st1" d="M284.11,224.64c0,0,57.09-17.89,54.12-44.53c-2.08-13.77-18.53-16.92-18.53-16.92s-17.12-5.11-21.93-15.32
		c-4.81-10.21-6.21-10.46-14.75-14.85c-13.27-5.41-22.5,7.71-22.5,7.71s-7.92,8.57-9.52,21.85c-1.6,13.28-1.95,34.04-1.95,34.04
		L284.11,224.64z"/>
	<path class="st1" d="M274.26,277.41c0,0,35.81,47.93,59.96,36.29c12.31-6.53,9.82-23.09,9.82-23.09s-0.85-17.85,7.18-25.77
		c8.03-7.92,7.8-9.33,9.12-18.84c0.7-14.31-14.73-18.68-14.73-18.68s-10.71-4.64-23.77-1.74c-13.06,2.89-32.76,9.44-32.76,9.44
		L274.26,277.41z"/>
	<path class="st1" d="M219.1,279.76c0,0-34.7,48.74-16.23,68.18c9.98,9.72,24.99,2.3,24.99,2.3s16.73-6.27,26.73-1.04
		c10,5.22,11.27,4.58,20.72,2.93c13.84-3.71,13.28-19.74,13.28-19.74s1.14-11.61-5.61-23.16c-6.75-11.55-19-28.31-19-28.31
		L219.1,279.76z"/>
	<path class="st1" d="M196.92,230.09c0,0-57.75-15.66-69.58,8.39c-5.66,12.73,6.5,24.24,6.5,24.24s11.68,13.52,10.23,24.72
		c-1.44,11.19-0.39,12.16,4.43,20.45c8.27,11.7,23.11,5.62,23.11,5.62s11.29-2.95,19.79-13.28c8.5-10.33,19.97-27.63,19.97-27.63
		L196.92,230.09z"/>
</g>
<ellipse transform="matrix(0.9958 -0.0917 0.0917 0.9958 -21.2863 23.2598)" class="st2" cx="242.52" cy="243.31" rx="63.48" ry="63.48"/>
</svg>
