<?xml version="1.0" encoding="UTF-8"?><svg id="Layer_2" xmlns="http://www.w3.org/2000/svg" viewBox="0 0 54.8 68.42"><defs><style>.cls-1{fill:#005468;}</style></defs><g id="Layer_1-2"><g id="Layer_2-2"><g id="Layer_1-2"><path class="cls-1" d="M54.8,68.41h-21c1.49-.48,2.88-1.23,4.1-2.21,1.21-.93,2.08-2.22,2.48-3.69v-16.93c.1-3.28-.72-6.52-2.38-9.35-1.62-2.62-4.19-3.94-7.69-3.94-2.66,.11-5.22,1.05-7.31,2.71-2.6,1.9-4.73,4.36-6.25,7.19-1.71,3.1-2.58,6.6-2.53,10.14v10.19c.45,1.46,1.33,2.74,2.53,3.69,1.19,1,2.57,1.75,4.06,2.21H0c1.49-.48,2.89-1.23,4.11-2.21,1.21-.93,2.08-2.22,2.48-3.69V5.81c-.4-1.47-1.27-2.76-2.48-3.69C2.9,1.14,1.5,.41,0,0H25.3c7.19,0,12.72,.92,16.57,2.76,3.85,1.84,5.78,5.38,5.78,10.63,.1,2.5-.64,4.97-2.1,7-1.49,1.92-3.32,3.55-5.39,4.82-2.31,1.44-4.7,2.76-7.16,3.93l-4.3,2.26c.54-.07,1.08-.1,1.62-.1,6,0,10.49,1.59,13.46,4.77,3,3.21,4.62,7.47,4.49,11.86v14.57c.4,1.47,1.27,2.77,2.48,3.69,1.2,.98,2.57,1.74,4.05,2.22ZM14.22,45.47c1.06-3.39,2.93-6.48,5.44-9,2.4-2.35,5.02-4.46,7.83-6.3,2.12-1.41,4.14-2.96,6.06-4.63,1.85-1.6,3.4-3.52,4.58-5.66,1.25-2.42,1.85-5.11,1.77-7.83,0-3.33-.67-5.79-2-7.38-1.35-1.58-3.21-2.64-5.25-3-2.42-.47-4.89-.7-7.36-.67H14.21V45.47Z"/></g></g></g></svg>