<svg xmlns="http://www.w3.org/2000/svg" viewBox="0 0 103.71 103.07"><defs><style>.cls-1{fill:#fff;}</style></defs><g id="Layer_2" data-name="Layer 2"><g id="Layer_1-2" data-name="Layer 1"><path class="cls-1" d="M54.15,44.46a89.83,89.83,0,0,0,9.22-7,31.66,31.66,0,0,0,7-8.61A24.32,24.32,0,0,0,73,16.92q0-7.64-3-11.23a13.67,13.67,0,0,0-8-4.64A55,55,0,0,0,50.82,0H43.68A51.27,51.27,0,0,0,34,2.52V67.66A33.63,33.63,0,0,1,42.26,54,77.83,77.83,0,0,1,54.15,44.46Z"/><path class="cls-1" d="M84.78,18.86a17.11,17.11,0,0,1-3.19,10.63,30.41,30.41,0,0,1-8.2,7.33,108.88,108.88,0,0,1-11,6L55.9,46.25a19.28,19.28,0,0,1,2.47-.15q13.63,0,20.47,7.26a25.31,25.31,0,0,1,6.82,18V90.51A51.83,51.83,0,0,0,83,9.75,21.66,21.66,0,0,1,84.78,18.86Z"/><path class="cls-1" d="M70,99.16a10.6,10.6,0,0,0,3.78-5.61V67.81a26.47,26.47,0,0,0-3.7-14.22q-3.7-6-11.68-6-5.37,0-11,4a32.87,32.87,0,0,0-9.51,10.93A31.12,31.12,0,0,0,34,78V93.56a11.51,11.51,0,0,0,3.85,5.61,18.28,18.28,0,0,0,5.85,3.25,52.59,52.59,0,0,0,8.18.65,51.59,51.59,0,0,0,16.38-2.66C68.82,100,69.41,99.62,70,99.16Z"/><path class="cls-1" d="M22.28,93.79a2.34,2.34,0,0,1,.09-.24v-85a51.84,51.84,0,0,0-.09,85.23Z"/></g></g></svg>